<svg width="40" height="40" viewBox="0 0 40 40" fill="none" xmlns="http://www.w3.org/2000/svg">
<path d="M0 20C0 8.95431 8.95431 0 20 0C31.0457 0 40 8.95431 40 20C40 31.0457 31.0457 40 20 40C8.95431 40 0 31.0457 0 20Z" fill="#FEF3F2"/>
<path d="M18.8239 24.667C18.8239 24.0227 19.3462 23.5003 19.9906 23.5003H20.001C20.6454 23.5003 21.1677 24.0227 21.1677 24.667C21.1677 25.3113 20.6454 25.8337 20.001 25.8337H19.9906C19.3462 25.8337 18.8239 25.3113 18.8239 24.667Z" fill="#B42318"/>
<path d="M19.1247 21.167C19.1247 21.6502 19.5164 22.042 19.9997 22.042C20.4829 22.042 20.8747 21.6502 20.8747 21.167V16.5003C20.8747 16.0171 20.4829 15.6253 19.9997 15.6253C19.5164 15.6253 19.1247 16.0171 19.1247 16.5003V21.167Z" fill="#B42318"/>
<path fill-rule="evenodd" clip-rule="evenodd" d="M18.0887 8.35116C19.3305 7.93894 20.6688 7.93894 21.9107 8.35116C23.1474 8.76168 24.1185 9.7353 25.094 11.1033C26.0663 12.4667 27.1406 14.3677 28.5255 16.8182L28.5798 16.9145C29.9649 19.3653 31.0392 21.2663 31.7088 22.8079C32.3815 24.357 32.7166 25.6945 32.4492 26.9795C32.1801 28.2732 31.5163 29.4497 30.5496 30.339C29.5853 31.226 28.2722 31.6002 26.6189 31.7799C24.9749 31.9587 22.8244 31.9587 20.0566 31.9587H19.9428C17.175 31.9587 15.0245 31.9587 13.3805 31.7799C11.7272 31.6002 10.4141 31.226 9.44976 30.339C8.48307 29.4497 7.8193 28.2732 7.55012 26.9795C7.28277 25.6945 7.61784 24.357 8.29061 22.8079C8.96011 21.2663 10.0344 19.3653 11.4195 16.9144L11.4739 16.8182C12.8588 14.3677 13.9331 12.4667 14.9054 11.1033C15.8809 9.7353 16.8519 8.76168 18.0887 8.35116ZM21.3594 10.012C20.4755 9.71864 19.5239 9.71864 18.64 10.012C17.9447 10.2429 17.2457 10.8356 16.3302 12.1193C15.4179 13.3987 14.388 15.2187 12.9701 17.7276C11.5523 20.2363 10.5243 22.0577 9.89577 23.505C9.26614 24.9548 9.10841 25.8779 9.26343 26.623C9.45897 27.5628 9.94014 28.4123 10.6345 29.051C11.1799 29.5526 12.0296 29.8728 13.5696 30.0402C15.1078 30.2074 17.163 30.2087 19.9997 30.2087C22.8363 30.2087 24.8916 30.2074 26.4297 30.0402C27.9697 29.8728 28.8195 29.5526 29.3648 29.051C30.0592 28.4123 30.5404 27.5628 30.7359 26.623C30.8909 25.8779 30.7332 24.9548 30.1036 23.505C29.4751 22.0577 28.447 20.2363 27.0292 17.7276C25.6114 15.2187 24.5815 13.3987 23.6692 12.1193C22.7537 10.8356 22.0547 10.2429 21.3594 10.012Z" fill="#B42318"/>
</svg>
