<svg width="56" height="56" viewBox="0 0 56 56" fill="none" xmlns="http://www.w3.org/2000/svg">
<path d="M0 28C0 12.536 12.536 0 28 0C43.464 0 56 12.536 56 28C56 43.464 43.464 56 28 56C12.536 56 0 43.464 0 28Z" fill="#ECFDF3"/>
<path d="M35.8633 20.7637C36.3159 20.5957 36.8203 20.8267 36.9883 21.2793C37.1563 21.7319 36.9252 22.2362 36.4727 22.4043C31.0646 24.4111 24.7369 34.7552 24.666 34.8711C24.5074 35.1324 24.2236 35.2919 23.918 35.292C23.918 35.292 23.9098 35.292 23.9062 35.292C23.596 35.2873 23.3111 35.121 23.1582 34.8516C21.2119 31.4462 19.8655 31.2361 19.835 31.2314C19.835 31.2314 19.5336 31.3024 19.2236 30.9766C18.9157 30.6529 18.9584 30.2842 18.959 30.2793C18.959 30.2793 18.9775 29.9417 19.2236 29.7002C19.4697 29.4588 19.835 29.459 19.835 29.459C20.1743 29.4591 21.8203 29.6357 23.9287 32.7715C25.8385 29.8618 31.0029 22.5673 35.8633 20.7637Z" fill="#067647"/>
<path d="M35.8633 20.7637C36.3159 20.5957 36.8203 20.8267 36.9883 21.2793C37.1563 21.7319 36.9252 22.2362 36.4727 22.4043C31.0646 24.4111 24.7369 34.7552 24.666 34.8711C24.5074 35.1324 24.2236 35.2919 23.918 35.292C23.918 35.292 23.9098 35.292 23.9062 35.292C23.596 35.2873 23.3111 35.121 23.1582 34.8516C21.2119 31.4462 19.8655 31.2361 19.835 31.2314C19.835 31.2314 19.5336 31.3024 19.2236 30.9766C18.9157 30.6529 18.9584 30.2842 18.959 30.2793C18.959 30.2793 18.9775 29.9417 19.2236 29.7002C19.4697 29.4588 19.835 29.459 19.835 29.459C20.1743 29.4591 21.8203 29.6357 23.9287 32.7715C25.8385 29.8618 31.0029 22.5673 35.8633 20.7637Z" stroke="#9DA4AE"/>
</svg>
