<svg width="20" height="20" viewBox="0 0 20 20" fill="none" xmlns="http://www.w3.org/2000/svg">
<path fill-rule="evenodd" clip-rule="evenodd" d="M10.0002 19.1667C15.0628 19.1667 19.1668 15.0626 19.1668 10C19.1668 4.93743 15.0628 0.833374 10.0002 0.833374C4.93755 0.833374 0.833496 4.93743 0.833496 10C0.833496 15.0626 4.93755 19.1667 10.0002 19.1667Z" fill="white"/>
<path fill-rule="evenodd" clip-rule="evenodd" d="M10.0002 19.1667C15.0628 19.1667 19.1668 15.0626 19.1668 10C19.1668 4.93743 15.0628 0.833374 10.0002 0.833374C4.93755 0.833374 0.833496 4.93743 0.833496 10C0.833496 15.0626 4.93755 19.1667 10.0002 19.1667ZM5.87534 9.26781C5.54991 9.59324 5.54991 10.1209 5.87534 10.4463L8.23237 12.8033C8.5578 13.1288 9.08544 13.1288 9.41088 12.8033L14.1249 8.0893C14.4504 7.76386 14.4504 7.23622 14.1249 6.91078C13.7995 6.58535 13.2718 6.58535 12.9464 6.91078L8.82162 11.0356L7.05385 9.26781C6.72842 8.94237 6.20078 8.94237 5.87534 9.26781Z" fill="#067647"/>
</svg>
