<svg width="111" height="86" viewBox="0 0 111 86" fill="none" xmlns="http://www.w3.org/2000/svg">
<path d="M70.0909 76.9648C70.3777 76.044 70.6645 75.1232 70.9705 74.1832C70.9323 74.1832 70.9131 74.1832 70.8749 74.1641C70.6072 74.6628 70.3203 75.1424 70.0718 75.6412C69.9379 75.9097 69.8232 76.1975 69.7658 76.4852C69.7467 76.6195 69.8614 76.7922 69.9188 76.9456C69.9761 76.9456 70.0335 76.9456 70.0909 76.9648Z" fill="#4F4F57"/>
<path d="M90.9339 65.5876C90.6662 65.5492 90.4367 65.5684 90.2646 65.837C90.1881 65.9713 90.016 66.048 89.9013 66.1439C89.8439 66.0672 89.7865 65.9713 89.7483 65.9329C88.6201 66.8345 87.4919 67.7169 86.3828 68.6377C86.2298 68.772 86.1915 69.0598 86.0959 69.2708C85.9812 69.1749 85.8856 69.079 85.7708 68.983C85.2545 69.3283 84.9103 69.7696 84.7574 70.3834C84.7 70.6136 84.4514 70.7863 84.2602 70.9589C84.069 71.1316 83.8395 71.2659 83.6483 71.4385C84.2028 71.3042 85.1972 70.3642 85.4458 69.923C85.5796 69.6736 85.8665 69.4818 86.0959 69.2708C86.3636 68.8488 86.727 68.5418 87.2433 68.4843C86.7078 69.0214 86.1915 69.5777 85.6561 70.1149C85.3119 70.4218 84.9868 70.7287 84.6426 71.0165C83.6865 71.8222 82.7113 72.6279 81.7551 73.4336C81.4301 73.6446 81.1241 73.8748 80.799 74.0858C79.4413 74.738 78.3514 75.8315 76.8789 76.2727C76.6303 76.3494 76.4009 76.5029 76.1714 76.618C75.9419 76.7139 75.7316 76.6564 75.7507 76.407C75.7507 76.1001 75.8846 75.7931 75.9611 75.4286C75.5404 75.3903 75.2535 76.1768 74.7564 75.8507C74.7564 75.4862 74.6225 75.0642 74.7755 74.8915C75.2918 74.3352 75.3874 73.6446 75.6742 72.9924C76.0184 72.2058 76.3818 71.4385 76.7451 70.6712C76.8024 70.5561 76.8981 70.4602 76.9937 70.3834C77.3379 70.1149 77.5291 69.7504 77.6056 69.3092C77.8351 67.9855 78.447 66.8153 79.2884 65.7602C79.4987 65.4917 79.7664 65.2807 79.9768 65.0313C80.3975 64.5517 80.5504 63.8611 81.2006 63.5158C81.4683 63.3815 81.5257 63.017 81.2962 62.7101C81.0859 62.7868 80.9138 62.8827 80.7417 62.9403C80.4357 63.0362 80.2445 62.9019 80.2445 62.595C80.2445 61.8468 80.3975 61.0795 80.9903 60.6191C81.4301 60.2738 81.6022 59.8901 81.6978 59.3914C81.7743 58.931 82.0802 58.6049 82.5009 58.5665C83.1893 58.5089 83.3232 58.0677 83.3805 57.5306C83.4379 57.0702 83.5909 56.6673 84.0498 56.4563C84.1646 56.3988 84.3175 56.2069 84.3175 56.0918C84.2984 54.9217 84.5661 54.538 85.6944 54.2886C86.1915 54.1735 86.6696 54.5955 86.7078 55.1135C86.7652 55.8233 86.2489 56.0918 85.79 56.418C85.6561 56.5139 85.4649 56.6482 85.4458 56.7824C85.4075 57.5881 85.0251 58.1445 84.2984 58.4706C84.1837 58.5281 84.0116 58.7008 84.0307 58.8159C84.1263 59.5832 83.7056 60.1012 83.1893 60.504C82.8451 60.7726 82.826 61.0603 82.7878 61.5207C82.9981 61.3289 83.1511 61.1946 83.3041 61.0411C83.4379 61.2138 83.5527 61.4056 83.763 61.6742C83.3805 62.1346 82.9407 62.6334 82.52 63.1321C82.52 63.1513 82.52 63.1705 82.5392 63.2089C83.0363 62.9595 83.5526 62.7101 84.1837 62.384C84.1837 62.806 84.2411 63.1705 84.1837 63.5158C84.0307 64.1872 84.0498 64.2639 84.853 64.4366C84.8721 64.1297 84.9103 63.8419 84.9103 63.6117C85.1207 63.746 85.331 63.957 85.5796 63.9954C85.8091 64.0337 86.0577 63.8803 86.2871 63.8227C85.6561 63.4774 85.5223 62.8827 86.0194 62.4991C86.3254 62.2497 86.5549 62.0003 86.6696 61.6166C86.727 61.4632 86.8799 61.3289 87.0138 61.2138C87.511 60.7918 88.0082 60.3697 88.448 60.0052C88.3141 60.6383 88.142 61.3673 87.989 62.077C87.989 62.1154 88.0464 62.173 88.0464 62.2113C88.0082 62.8252 88.0464 63.4391 87.5684 63.9186C87.511 63.9762 87.4919 64.0721 87.4536 64.1872C87.9126 63.9954 88.3332 63.8419 88.7539 63.6693C88.7922 63.7076 88.8304 63.7268 88.8687 63.7652C88.7922 64.0529 88.8304 64.4941 88.6583 64.5709C88.1038 64.8778 88.0464 65.4725 87.7596 65.9137C87.7022 66.0096 87.7596 66.1631 87.7596 66.2974C87.8743 66.259 88.0273 66.2398 88.1229 66.1823C88.3524 66.048 88.5436 65.8753 88.7539 65.7027C88.7731 65.7219 88.8113 65.7602 88.8304 65.7794C88.6201 66.0864 88.4097 66.4125 88.2185 66.7194C88.2185 66.7194 88.2568 66.7386 88.2759 66.7578C89.0981 65.8945 89.9013 65.0121 90.7235 64.1488C90.5323 64.2256 90.3602 64.3215 90.169 64.3982C90.1499 64.379 90.1307 64.3599 90.1116 64.3215C90.2455 64.1297 90.3793 63.9186 90.5132 63.7268C90.4176 63.7268 90.3411 63.6884 90.2072 63.6693C90.6088 63.3431 90.9913 63.0746 91.3163 62.7485C91.7944 62.3072 92.2151 61.8277 92.674 61.3481C92.827 61.1562 92.9991 60.9644 93.1521 60.7726C93.4389 60.3889 93.7258 59.9861 93.9935 59.6024C94.0317 60.3697 93.2668 60.8493 93.3816 61.5975C93.4198 61.5975 93.4772 61.6166 93.5154 61.6358C93.3242 61.9428 93.133 62.2497 92.8652 62.6525C93.1521 62.4799 93.3242 62.3648 93.4963 62.2497C93.1138 62.8444 92.7888 63.4774 92.3489 64.0337C91.9474 64.5517 91.4502 64.9929 90.9913 65.4533V65.4917L90.9339 65.5876ZM81.6213 71.9565C81.1815 71.592 80.952 72.0332 80.646 72.2059C80.4357 72.321 80.2062 72.4169 79.8812 72.5703C79.9768 71.7646 80.2062 71.1508 80.5696 70.5944C80.8946 70.1149 81.258 69.6545 81.6022 69.1749C81.9272 68.9063 82.2523 68.6377 82.5965 68.3884L82.5009 68.2733C82.195 68.5802 81.6978 68.6569 81.6213 69.1941C81.4492 69.2324 81.258 69.2516 81.1241 69.3475C80.952 69.4626 80.8181 69.6353 80.6843 69.8079C80.1489 70.4602 79.4796 70.7287 78.6382 70.3259C78.5426 70.6712 78.447 70.9589 78.3705 71.2467C78.4661 71.381 78.2175 71.7454 78.6382 71.6495C78.6956 71.6879 78.7912 71.7263 78.7721 71.7454C78.6764 71.9948 78.5617 72.2442 78.447 72.532C78.7721 72.532 78.9824 72.4936 79.2692 72.4936C79.0971 73.3377 78.5808 73.894 78.0645 74.4503C78.1028 74.5078 78.1219 74.5462 78.1601 74.6038C78.4852 74.5079 78.8103 74.3927 79.2501 74.2585C78.9824 74.527 78.7912 74.7572 78.5808 74.9683C78.5808 75.0066 78.6191 75.0258 78.6191 75.0642C78.7912 74.9683 78.9824 74.9107 79.1163 74.7764C79.4796 74.4119 79.9194 74.0858 80.1297 73.6446C80.4931 72.8581 81.0859 72.3593 81.7934 71.9373C82.042 71.7646 82.3097 71.6112 82.5392 71.4385C83.0172 71.0549 83.4762 70.652 84.0498 70.1532C83.7248 70.1149 83.5527 70.0957 83.457 70.0765C82.8834 70.7095 82.3479 71.3234 81.8125 71.9373C81.7551 71.9373 81.6978 71.9756 81.6787 71.9373M80.4357 68.0047C80.6652 67.5443 80.9138 67.0263 81.1815 66.5084C81.2771 66.3357 81.4874 66.2015 81.6022 66.0288C81.6787 65.9137 81.6787 65.7602 81.736 65.5109C81.8508 65.7986 81.9272 66.0096 82.0229 66.2782C82.4436 65.7027 82.8451 65.1656 83.2467 64.6284C83.2467 64.6092 83.2276 64.5901 83.2084 64.5709C83.0363 64.686 82.8642 64.8203 82.673 64.9354C82.3479 65.1272 82.0802 65.3382 81.6595 65.3958C81.3153 65.4533 80.9902 65.7986 80.7417 66.1055C80.4548 66.4317 80.2445 66.8345 79.9959 67.199C79.9003 67.3333 79.8238 67.4867 79.7664 67.5827C80.0341 67.7553 80.2062 67.8512 80.4357 67.9855M83.9925 66.5851C83.8012 66.6043 83.5526 66.6427 83.4379 66.7578C83.2276 67.0263 83.0937 67.3716 82.9407 67.6786C83.4188 67.4676 83.916 67.2374 84.4323 66.988C84.5088 66.9496 84.547 66.8153 84.5661 66.7194C84.5661 66.7002 84.4514 66.5851 84.4323 66.6043C84.3367 66.6427 84.2602 66.7194 84.2028 66.777C84.1454 66.7194 84.0498 66.5659 83.9733 66.5851M85.3884 68.3116C85.484 68.0431 85.5223 67.928 85.5796 67.7937C85.5414 67.7745 85.5223 67.7553 85.484 67.7169C85.3502 67.9088 85.1972 68.0814 85.0633 68.2924C85.0633 68.2924 85.2545 68.5035 85.2928 68.4843C85.484 68.3692 85.6561 68.2157 85.8473 68.0622C85.8282 68.0239 85.79 67.9855 85.7708 67.9471C85.6752 68.0239 85.5987 68.1198 85.4075 68.2924M77.0128 75.4095C76.9745 75.3519 76.9363 75.2944 76.8789 75.256C76.6495 75.4478 76.4391 75.6205 76.2097 75.8123C76.2479 75.8507 76.2861 75.9082 76.3244 75.9466C76.5539 75.774 76.7833 75.6013 77.0128 75.4095Z" fill="#4F4F57"/>
<path d="M73.1506 77.0217C73.3992 77.0217 73.6287 77.0217 73.8773 77.0217C73.8964 76.4079 73.8008 75.794 73.5331 75.2185C73.1697 74.4128 72.9211 73.5879 72.9403 72.6863C72.9403 72.5904 72.7682 72.4945 72.7108 72.3794C72.6534 72.1875 72.6343 71.9957 72.596 71.8039C72.4239 71.0941 72.2327 70.3843 72.0989 69.6553C72.0606 69.4827 72.2136 69.2141 72.3666 69.0798C73.2653 68.3125 73.6478 67.3725 73.4374 66.164C73.3609 65.7419 73.4374 65.3007 73.4374 64.9746C72.9211 65.4734 72.2519 66.0297 71.6973 66.6819C71.3913 67.0464 71.181 67.5644 71.0663 68.0439C70.9324 68.6003 71.2384 69.0223 71.7547 69.2717C71.2192 70.9214 69.938 72.552 71.8312 74.1826C72.1562 73.7222 72.4431 73.3194 72.7873 72.8206C72.8638 74.2593 72.3666 75.7748 73.1697 77.0026" fill="#4F4F57"/>
<path d="M75.0814 66.892C75.808 66.1246 77.1083 65.8177 76.8406 64.3406C77.988 64.4557 78.6572 63.8418 79.1544 63.0169C79.6516 62.192 79.9193 61.2904 79.0588 60.5039C78.8867 60.5806 78.6764 60.6766 78.466 60.7725C77.7202 61.0794 77.2231 61.6741 76.9362 62.3839C76.6494 63.0553 76.0948 63.4581 75.655 63.9761C75.2917 64.4173 74.8901 64.8777 74.7372 65.3957C74.6033 65.8369 74.8136 66.374 74.871 66.8728H75.0814V66.892Z" fill="#4F4F57"/>
<path d="M77.6445 58.299C77.8358 58.6251 78.1417 58.5867 78.4285 58.5484C78.964 58.4716 79.6906 57.8002 79.7289 57.2823C79.7289 57.148 79.7289 56.9562 79.6524 56.8602C79.3655 56.5341 79.4994 56.3039 79.7862 56.0929C79.9966 55.9586 80.1687 55.7668 80.3599 55.6133C80.8953 55.1913 80.9909 54.8076 80.7232 54.1938C80.6659 54.0595 80.6659 53.8868 80.7232 53.7525C80.838 53.484 80.9909 53.2154 81.1248 52.966C81.3734 52.4864 81.2587 51.9685 80.8571 51.7383C80.5703 51.5848 79.8436 51.7575 79.6715 52.0836C79.4612 52.4481 79.3082 52.8509 79.1743 53.1579C79.4038 53.2921 79.6715 53.4072 79.6715 53.484C79.6524 53.6758 79.5568 53.9252 79.4038 54.0403C78.9831 54.3472 78.6963 54.7117 78.5815 55.2105C78.5815 55.268 78.5242 55.3639 78.5624 55.4023C78.964 55.9394 78.4859 56.0929 78.1991 56.3807C77.6828 56.9178 77.6636 57.5892 77.6636 58.2798L77.6445 58.299Z" fill="#4F4F57"/>
<path d="M90.9538 65.5504V65.5888C90.6861 65.7998 90.4184 66.0108 90.1506 66.2027C90.1124 66.2219 89.9977 66.1451 89.9212 66.1259C89.6152 66.4712 89.2901 66.8357 88.9842 67.181C88.9651 67.1427 88.9459 67.1043 88.9077 67.0467C88.7547 67.0659 88.5252 67.0467 88.4488 67.1426C88.0281 67.5647 87.6265 68.0251 87.2249 68.4663C86.7851 68.9843 86.7277 69.6557 86.5174 70.2695C86.2879 70.9793 85.8672 71.6316 85.5039 72.3605C85.9246 72.3222 86.0967 72.0728 86.2306 71.7658C86.3262 71.5165 86.5365 71.3246 86.6512 71.0752C86.8042 70.7875 86.8998 70.4806 87.0719 70.0777C87.1676 70.4422 87.2249 70.6916 87.3014 70.9218C89.0033 70.2887 90.1315 69.0802 90.6861 67.5839C90.3992 67.8333 89.9785 68.2169 89.5196 68.543C89.1372 68.8116 88.6973 68.9843 88.2575 69.1953C88.8695 68.7541 88.7356 67.8141 89.5196 67.488C89.7491 67.2769 89.9977 67.0659 90.2271 66.8549C90.4375 66.5671 90.6669 66.2794 90.8582 65.9916C90.9538 65.8574 90.9729 65.6847 91.0494 65.5312C91.0494 65.5312 91.0112 65.5312 90.992 65.5312H90.9538" fill="#4F4F57"/>
<path d="M93.4588 68.7917C93.7265 67.9477 93.9751 67.1036 94.2619 66.2595C94.7209 64.8592 95.1989 63.4588 95.6579 62.0392C96.1359 60.5237 96.5949 58.9891 97.0729 57.4736C97.245 56.9364 97.3215 56.3034 97.6657 55.9197C98.1438 55.3826 98.1629 54.8071 98.2585 54.2124C98.2585 54.174 98.2585 54.1165 98.2394 54.0781C98.2012 54.0781 98.1438 54.0781 98.1438 54.1165C97.6084 55.1332 96.8626 56.0924 96.5949 57.1666C96.3463 58.1834 95.9447 59.1425 95.6961 60.1401C95.6005 60.5045 95.2181 60.8307 95.1989 61.1951C95.1225 62.3461 94.6253 63.3437 94.2428 64.3988C93.7648 65.7991 93.2867 67.2187 93.2676 68.7342C93.3441 68.7342 93.4014 68.7726 93.4779 68.7917" fill="#4F4F57"/>
<path d="M90.3989 32.6699C89.7678 33.1303 89.5766 33.6866 89.6913 34.3389C89.9399 35.5858 90.0929 36.8327 89.7296 38.0604C89.5001 38.847 89.4427 39.6143 89.8443 40.3433C90.3989 40.1131 90.5327 39.6143 90.5901 39.0388C90.5901 38.8661 90.8004 38.7127 90.896 38.5592C91.2594 38.0029 91.4697 37.4082 91.1446 36.756C91.0873 36.6217 91.0681 36.4874 91.0299 36.3339C90.9534 36.3915 90.896 36.4299 90.7813 36.5066C90.7813 36.238 90.7431 36.0078 90.7813 35.816C90.8578 35.394 90.896 35.0295 90.4945 34.7034C90.3606 34.5883 90.3989 34.2621 90.3989 34.0319C90.3989 33.5907 90.3989 33.1495 90.3989 32.6699Z" fill="#4F4F57"/>
<path d="M90.7046 41.0529C90.6089 40.8802 90.5516 40.7651 90.4751 40.6308C89.9014 41.2063 89.9397 42.0312 90.5133 42.741C90.5707 42.6643 90.6281 42.5875 90.6663 42.5492C90.934 43.1822 91.2017 43.7961 91.4886 44.4867C92.1196 43.8536 92.2917 43.2014 92.0622 42.4724C91.8328 41.7243 92.1005 41.0529 92.3873 40.439C92.7124 39.7484 92.6168 39.1153 92.4829 38.3672C92.1196 38.8468 91.7945 39.2496 91.5077 39.6908C91.24 40.1129 91.0105 40.5733 90.7237 41.072" fill="#4F4F57"/>
<path d="M92.636 61.4253C92.789 61.2335 92.9611 61.0416 93.1141 60.8498C93.5156 60.14 93.9172 59.4111 94.3379 58.6821C94.204 58.8164 94.0702 58.9315 93.9363 59.0466C93.7642 58.3943 93.7069 58.3752 93.2288 58.8164C93.0949 58.9507 92.9037 59.0466 92.7507 59.1617H92.789C92.6551 59.1041 92.5213 59.0466 92.5213 59.0466C92.4065 58.6054 92.3109 58.2792 92.2153 57.9531C91.1827 58.4903 91.5651 59.3919 91.4887 60.0825C91.5269 60.1592 91.6225 60.2743 91.6034 60.3319C91.5078 60.5429 91.3166 60.7347 91.2592 60.9649C91.0871 61.5788 91.1062 61.6171 91.5843 62.0008C91.9476 61.598 92.3109 61.2143 92.7125 60.7923C92.6934 61.0608 92.6742 61.2527 92.6551 61.4253" fill="#4F4F57"/>
<path d="M88.6968 35.5471C88.7924 35.0867 88.8306 34.6647 88.6012 34.2043C88.5056 33.9741 88.7159 33.5904 88.7924 33.3218C88.6203 33.3986 88.3908 33.4753 88.1231 33.5904C88.257 32.3819 88.3335 31.2884 88.2379 30.1758C87.9701 30.7321 86.9949 30.7129 87.1861 31.557C86.7081 31.5762 86.4977 31.8255 86.6698 32.2476C86.861 32.7272 87.167 33.1684 87.4538 33.648C86.861 34.2618 87.7789 34.6839 87.7789 35.2977C87.8172 35.221 87.8554 35.1251 87.8936 35.0483C87.9128 35.0483 87.951 35.0675 87.9701 35.0867C87.9701 35.2977 87.9893 35.5088 88.0084 35.643C88.2378 35.6047 88.4673 35.5663 88.6968 35.5471Z" fill="#4F4F57"/>
<path d="M82.5012 41.5324C82.5012 41.5324 82.4056 41.5324 82.2909 41.5324C82.2909 41.3406 82.31 41.1104 82.3291 40.7459C82.1188 40.8418 81.8893 40.8802 81.851 40.9761C81.6981 41.4173 81.5833 41.8777 81.5068 42.3381C81.5068 42.3957 81.7172 42.5875 81.8319 42.5683C82.0231 42.5491 82.1761 42.4148 82.3673 42.3381C82.5203 42.2806 82.6924 42.223 82.8836 42.223C84.8724 40.6116 85.0445 38.9043 83.9927 37.5039C83.4191 37.7533 83.3808 38.2137 83.8015 39.0194C83.3426 39.9018 82.9219 40.7075 82.5012 41.5324Z" fill="#4F4F57"/>
<path d="M87.6834 42.7027C87.6452 42.741 87.607 42.7986 87.5496 42.8753V42.4533C87.3775 42.5109 87.2436 42.5492 87.2054 42.5684C87.2819 41.7819 87.3392 40.9954 87.4157 40.2088C87.3775 40.1705 87.3392 40.1321 87.2819 40.0938C87.0715 40.2664 86.7464 40.4199 86.6508 40.6309C86.4214 41.2064 86.2875 41.8202 86.1345 42.4149C86.0772 42.6643 86.0198 42.9137 86.0007 43.1631C85.9815 43.3933 85.9815 43.6235 86.0007 43.8537C86.0007 44.0839 86.0772 44.3333 86.0963 44.5826C86.2301 44.5826 86.3831 44.5443 86.517 44.5443C86.4022 45.1198 86.3066 45.6569 86.1919 46.2324C86.6508 46.1557 87.1863 45.5418 87.0906 45.139C86.9568 44.621 87.2819 44.2565 87.3966 43.8345C87.4922 43.47 87.6643 43.1439 87.7982 42.7986C87.7599 42.7794 87.7217 42.7411 87.6834 42.7219" fill="#4F4F57"/>
<path d="M86.7656 56.9547C86.3449 57.2617 85.9434 57.5494 85.5609 57.8563C85.2167 58.1441 85.1594 58.6045 85.3506 58.9306C85.5418 59.2759 85.4079 59.4677 85.1976 59.6212C84.6239 60.0432 84.6048 60.6571 84.643 61.271C84.643 61.3861 85.0064 61.6163 85.0637 61.5779C85.6757 61.1942 86.5553 61.06 86.5935 60.0816C86.5935 59.9857 86.67 59.8514 86.6318 59.7939C86.3067 59.2951 86.4979 58.9114 86.823 58.4702C87.2246 57.9523 86.9186 57.3959 86.7656 56.9355" fill="#4F4F57"/>
<path d="M96.1545 43.7762C96.2501 43.6994 96.3075 43.6611 96.4796 43.5268C96.1163 44.8504 96.7282 45.9247 97.015 47.0757C96.9385 46.9798 96.8812 46.8647 96.8047 46.7688C96.4031 46.6729 96.4031 47.9965 96.8047 49.4545C97.2445 49.1859 97.4166 48.7639 97.3019 48.0157C97.2636 47.7471 97.3019 47.5553 97.4357 47.3059C97.6078 46.9606 97.5696 46.5194 97.5887 46.1165C97.5887 45.8672 97.5122 45.637 97.474 45.3108C97.3784 45.4259 97.321 45.5027 97.2063 45.6562C96.9003 44.2941 97.2063 42.9513 96.9577 41.666C96.2501 41.8962 95.9059 42.8362 96.1736 43.7762" fill="#4F4F57"/>
<path d="M77.6447 58.3184C77.4917 57.9923 77.3196 57.6854 77.1092 57.2441C76.9754 57.3401 76.7077 57.436 76.6312 57.6086C75.7898 59.4502 74.5659 61.0424 73.4568 62.7114C73.3804 62.8073 73.323 62.9224 73.2656 63.0183L73.4186 63.1334C73.7246 62.7306 74.0879 62.3661 74.3365 61.9249C74.5277 61.5988 74.738 61.4453 75.0823 61.3877C76.1531 61.2343 76.5738 60.7739 76.7459 59.6996C76.7841 59.4886 76.9371 59.2776 77.071 59.0666C77.2431 58.798 77.4534 58.5294 77.6447 58.28" fill="#4F4F57"/>
<path d="M87.7595 47.5746C88.0846 47.4403 88.467 47.3828 88.6582 47.1718C88.9451 46.8648 89.1745 46.4428 89.2893 46.04C89.5379 45.1 89.6717 44.1408 89.863 43.2008C89.9586 42.702 90.0351 42.2225 89.6335 41.7812C89.2128 41.8964 89.0407 42.2608 89.0216 42.6637C89.0216 43.0665 89.0981 43.4694 89.2128 43.8722C89.2893 44.1408 89.3275 44.2943 89.0598 44.5053C88.5817 44.8698 88.1419 45.311 87.7021 45.7138C87.3197 46.0591 87.2432 46.884 87.5491 47.306C87.6256 47.402 87.683 47.4979 87.7404 47.5938" fill="#4F4F57"/>
<path d="M93.8409 64.1113C93.1907 64.4183 92.9804 64.9938 92.6744 65.5884C92.3111 66.3366 91.7183 66.9505 91.202 67.6219C90.8004 68.1398 90.3606 68.6386 90.0164 69.1949C89.8634 69.4443 89.8634 69.8088 89.8252 70.1349C89.8252 70.1924 89.9208 70.3075 89.9591 70.2884C90.0547 70.2884 90.1885 70.2308 90.2459 70.1733C90.5901 69.8088 90.9343 69.4251 91.2785 69.0414C91.6418 68.6194 92.0051 68.1974 92.3111 67.737C92.5979 67.3149 92.8274 66.8354 93.0378 66.3558C93.3246 65.6268 93.5732 64.8595 93.8409 64.1113Z" fill="#4F4F57"/>
<path d="M95.0643 37.4455C95.0643 37.5222 95.0261 37.6181 94.9878 37.8483C94.9496 37.5798 94.9113 37.4263 94.9113 37.3879C94.6627 37.2536 94.4715 37.1385 94.2612 37.0234C94.0699 37.714 93.9743 38.3279 94.4524 38.961C94.7966 39.4214 94.9878 39.9969 95.2364 40.5148C95.2938 40.6491 95.2746 40.8026 95.2746 40.956C95.1982 41.8001 95.1982 41.8001 95.4659 42.6058C96.2116 42.0111 96.0778 41.2246 95.8866 40.4189C95.8101 40.112 95.7718 39.7667 95.8674 39.4981C96.0778 38.8459 95.3894 38.5006 95.4085 37.9059C95.4085 37.7524 95.1982 37.5989 95.0834 37.4455" fill="#4F4F57"/>
<path d="M100.17 38.885C100.113 39.1344 100.056 39.3646 99.9983 39.6715C99.5585 38.9425 99.1187 38.3862 99.1378 37.523C99.1378 36.9667 98.698 36.3912 98.4494 35.8348C98.3729 35.7006 98.239 35.5855 98.1243 35.4512C97.7419 35.6046 97.9331 35.8924 98.0287 36.1418C98.2199 36.6405 98.3347 37.1201 98.1626 37.6764C98.1052 37.8683 98.3155 38.2136 98.5068 38.4246C98.7745 38.7123 99.0804 38.9042 99.1187 39.3838C99.1569 39.8058 99.4437 40.2278 99.6732 40.6115C99.7306 40.7074 99.9601 40.669 100.075 40.7458C100.247 40.8417 100.381 40.976 100.534 41.0911C100.859 40.4388 100.687 39.307 100.17 38.885Z" fill="#4F4F57"/>
<path d="M85.8667 51.7949C85.7138 51.8908 85.599 52.0059 85.4843 52.0059C84.7003 52.0059 84.509 52.6198 84.2605 53.1761C84.1457 53.4255 84.0884 53.7133 84.0119 53.9818C83.9163 54.3079 84.031 54.4614 84.3752 54.4422C85.121 54.3847 85.7138 54.0202 86.2109 53.5022C86.5169 53.1761 86.7081 52.7925 86.2683 52.3704C86.1153 52.217 86.0006 52.0059 85.8667 51.7949Z" fill="#4F4F57"/>
<path d="M97.8759 34.8188C98.1053 34.8188 98.2583 34.838 98.3922 34.8571C98.6025 35.3751 98.4878 36.0849 99.3292 36.2575V34.838C99.4248 34.9339 99.4821 34.9914 99.5778 35.0873C100.113 33.8788 99.4439 32.9772 98.9467 31.9605C98.7173 32.7086 98.6216 33.3608 99.0423 34.0131C99.1571 34.1857 99.1571 34.4351 99.2144 34.7037C97.7803 34.1665 98.0288 32.8045 97.5508 31.8262C97.5508 32.018 97.5699 32.1907 97.589 32.3825C97.6846 33.1882 97.7803 33.9939 97.8759 34.838" fill="#4F4F57"/>
<path d="M90.1123 56.8414C89.9976 56.8606 89.902 56.8798 89.8255 56.899C89.902 56.0933 90.9346 55.3643 89.9976 54.5586C89.6916 54.9039 89.3474 55.23 89.0988 55.6137C88.9841 55.7863 89.0606 56.0933 89.0415 56.3235C89.0032 56.6496 88.9267 56.9757 88.9076 57.3018C88.8694 57.7238 88.8311 58.1459 88.8694 58.5679C88.9076 58.894 89.1944 58.9516 89.3857 58.7022C89.8064 58.1651 90.0932 57.5704 90.1314 56.8414" fill="#4F4F57"/>
<path d="M83.5726 51.1423C83.7638 51.1423 83.9933 51.2383 84.1463 51.1615C84.4714 50.9889 84.7964 50.7587 85.0641 50.5093C85.351 50.2599 85.0641 49.3775 84.7008 49.2432C84.0124 49.013 83.324 49.2432 83.0563 49.8954C82.9033 50.2791 82.9607 50.7587 82.9033 51.2958C83.2093 51.1423 83.3814 51.0656 83.5535 50.9697C83.5535 51.0081 83.5535 51.0656 83.5726 51.104" fill="#4F4F57"/>
<path d="M93.267 52.2559C92.4256 53.0807 92.2917 54.0975 92.4065 55.1717C92.4638 55.7089 92.7124 55.7664 93.2287 55.3827C93.1714 55.5938 93.1522 55.6897 93.114 55.8048C93.0757 55.9199 93.0375 56.0158 92.9992 56.1309C93.0375 56.1501 93.0949 56.1693 93.1331 56.1884C93.4008 55.5938 93.6685 55.0183 93.9745 54.3277C93.8215 54.4236 93.745 54.4619 93.6303 54.5387C93.4391 53.7905 93.9745 52.9465 93.2861 52.275" fill="#4F4F57"/>
<path d="M79.3648 44.7555C79.0397 45.12 78.7337 45.2735 79.0779 45.7147C79.3265 46.0408 78.925 47.0383 78.5999 47.3453C78.4278 47.5179 78.2748 47.8824 78.3513 48.0742C78.4469 48.362 78.7337 48.573 78.9441 48.8224C79.0206 48.8224 79.0779 48.784 79.1544 48.784C79.2883 48.4003 79.4986 48.0359 79.5369 47.6522C79.5751 47.2493 79.7855 47 80.0341 46.7889C80.34 46.5396 80.3591 46.3094 80.1105 46.0983C79.6899 45.7722 79.4413 45.3886 79.3648 44.7363" fill="#4F4F57"/>
<path d="M86.6123 49.4745C86.7844 49.7814 86.9183 49.9924 87.033 50.1843C87.0139 50.2034 87.033 50.1843 87.1286 50.1075C87.1477 50.2226 87.1669 50.3185 87.2051 50.4912C87.6258 50.1459 88.0847 49.8773 88.3716 49.4745C88.7923 48.8798 88.7349 48.6496 88.1803 48.1892C88.0465 48.0933 87.7788 48.0357 87.6449 48.0933C87.0139 48.3427 86.5549 48.7647 86.6314 49.4361" fill="#4F4F57"/>
<path d="M75.3876 69.6735C75.1199 70.5367 74.8522 71.4 74.6036 72.2632C74.3742 73.0881 74.4124 73.2224 74.814 74.0281C75.445 73.3375 75.7701 72.5126 75.9422 71.611C75.9804 71.3424 76.0761 70.9779 75.598 70.882C75.5024 70.8628 75.4259 70.5559 75.4068 70.3641C75.3877 70.1339 75.445 69.9037 75.4641 69.6735C75.4641 69.6735 75.4259 69.6735 75.4068 69.6543" fill="#4F4F57"/>
<path d="M96.5562 22.4068C95.7913 22.3109 95.0072 22.1958 94.2423 22.0998C94.2423 22.1574 94.2232 22.2149 94.2041 22.2725C94.8734 22.3684 95.5236 22.4643 96.1928 22.5411C96.5562 22.5794 96.9768 22.426 96.996 23.1166C96.996 23.5961 97.4549 24.0374 97.5888 24.5361C97.7226 24.9965 97.7035 25.5145 97.7609 25.9941C97.7991 26.4161 97.8374 26.8573 97.9521 27.2793C98.0477 26.7614 98.1624 26.2243 98.2389 25.7063C98.258 25.5528 98.2198 25.3802 98.1433 25.2459C97.933 24.7855 97.7226 24.4018 97.78 23.8072C97.8374 23.2892 97.8182 22.5219 96.9577 22.3876H97.474C97.474 22.3684 97.474 22.33 97.474 22.3109C96.7474 22.0231 96.0207 21.7545 95.2941 21.4668C95.2941 21.4668 95.275 21.5052 95.2558 21.5243C95.3897 21.6011 95.5044 21.697 95.6957 21.8121C95.5618 21.8505 95.4853 21.8696 95.2367 21.908C95.753 22.0423 96.1546 22.1574 96.537 22.2533C96.537 22.2917 96.537 22.3492 96.537 22.3876" fill="#4F4F57"/>
<path d="M89.5 60.87C89.6912 61.0618 89.8251 61.1769 89.9589 61.292C90.1119 61.2728 90.3223 61.2536 90.5326 61.1961C90.6473 61.1769 90.7621 61.1385 90.8386 61.081C91.221 60.7165 91.374 59.5079 91.1063 59.0475C90.9724 58.7982 90.8768 58.5488 90.7238 58.2227C90.3031 59.1626 89.8824 60.0451 89.5 60.87Z" fill="#4F4F57"/>
<path d="M87.683 53.4635C87.9316 53.4635 88.1228 53.4059 88.2949 53.4251C88.6582 53.4635 88.9642 53.3867 89.1363 53.0606C89.3084 52.7153 89.4805 52.3317 89.4614 51.9672C89.4614 51.7753 89.0024 51.6219 88.7347 51.4492C88.2184 51.8904 87.0711 52.1974 87.683 53.4443" fill="#4F4F57"/>
<path d="M81.335 45.5024C81.4497 45.5024 81.5262 45.5024 81.6027 45.5024C81.5836 45.6559 81.5453 45.8093 81.5262 45.9628C82.1381 46.0395 82.4632 45.6367 82.8648 45.3489C83.3811 44.9653 83.3046 44.4473 83.2854 43.9294C82.0425 43.8718 81.7365 44.1212 81.335 45.5216" fill="#4F4F57"/>
<path d="M96.1545 38.7116C96.6899 38.1361 96.6326 37.4838 96.4605 36.7549C96.3649 36.3328 96.5561 35.8532 96.5178 35.412C96.4796 35.0092 96.2884 34.6063 96.0971 34.2227C96.0971 35.7381 95.2175 37.2728 96.1545 38.7116Z" fill="#4F4F57"/>
<path d="M83.0945 46.8081C82.6738 46.8081 82.1193 46.6547 81.7942 46.8465C81.3162 47.1534 81.297 47.7865 81.3162 48.4003C81.8325 48.4195 82.3296 48.4771 82.7886 48.1126C83.2666 47.7481 83.324 47.3069 83.0754 46.8081" fill="#4F4F57"/>
<path d="M92.1006 35.3738C92.33 34.9902 92.5021 34.5489 92.8081 34.2228C93.5539 33.4171 92.8081 32.6498 92.9037 31.8633H92.7698C92.789 32.151 92.8272 32.4388 92.8463 32.7457C92.8081 32.7457 92.7698 32.7649 92.7316 32.7841C92.2535 32.8608 92.005 33.1294 91.9858 33.609C91.9476 34.1845 91.9093 34.7408 91.8711 35.3163C91.9476 35.3355 92.0241 35.3738 92.1006 35.393" fill="#4F4F57"/>
<path d="M99.7882 46.4238C99.6161 47.2679 99.2719 48.112 99.3484 48.9368C99.4249 49.8001 99.0233 50.4331 98.8321 51.1813C98.8321 51.1046 98.813 51.0086 98.7938 50.9127C98.4688 51.4499 98.4688 51.565 98.9468 52.198C99.5779 50.2797 100.19 48.4381 99.7882 46.4238Z" fill="#4F4F57"/>
<path d="M93.2481 46.7498C93.3819 46.1359 93.6114 45.5988 93.5923 45.0425C93.5731 44.5053 93.2863 43.9874 93.1333 43.5078C92.4258 44.5437 92.1963 45.5988 93.2481 46.7306" fill="#4F4F57"/>
<path d="M96.4602 17.0543C96.4602 16.5939 96.0204 16.6898 95.7909 16.498C95.638 16.3829 95.4276 16.3062 95.2555 16.2294C94.7775 16.2678 94.1847 15.8649 93.8978 15.2703C93.8213 15.1168 93.7449 14.9633 93.6492 14.7715C93.2668 15.5964 94.1082 16.9776 95.2364 17.3612C95.1982 17.131 95.179 16.9584 95.1599 16.8049C95.5615 16.8817 96.0204 16.9584 96.4794 17.0351L96.4602 17.0543Z" fill="#4F4F57"/>
<path d="M96.9002 19.8735C96.5942 19.298 96.2882 18.7225 95.4851 18.6074C95.5425 18.7801 95.5807 18.9144 95.6381 19.087C95.466 18.9527 95.3512 18.8568 95.2174 18.7417C95.0453 18.8184 94.8732 18.9144 94.6055 19.0295C94.9688 19.4707 95.2556 19.9119 95.6572 20.238C95.8867 20.4298 96.2882 20.4298 96.6516 20.4107C96.3839 20.1613 96.1161 19.9119 95.7911 19.605C96.1353 19.7009 96.3839 19.7584 96.6324 19.8352C96.7281 19.8352 96.8045 19.8543 96.9002 19.8735Z" fill="#4F4F57"/>
<path d="M92.2725 55.709C91.4885 56.1886 91.1443 56.8984 91.1825 57.8C91.1825 58.1453 91.3738 58.2028 91.6224 58.0494C92.5785 57.493 92.808 56.6873 92.2725 55.709Z" fill="#4F4F57"/>
<path d="M90.3037 46.7109C89.9977 46.9795 89.6917 47.2289 89.424 47.4975C88.9268 47.9962 89.0416 48.5142 89.424 49.0321C90.3993 48.8019 90.6479 48.0346 90.3037 46.7109Z" fill="#4F4F57"/>
<path d="M93.4776 35.2012C92.5406 35.604 92.5406 35.6424 93.2673 37.3689C93.5732 36.966 93.9366 36.6399 94.1087 36.2563C94.319 35.7575 93.8601 35.4889 93.4776 35.2204" fill="#4F4F57"/>
<path d="M88.7739 41.7616C89.4049 41.0518 89.0034 40.3612 88.8121 39.6706C88.6018 39.7282 88.5253 39.6323 88.4297 39.1719C87.6265 39.6131 87.7986 40.9559 88.7739 41.7616Z" fill="#4F4F57"/>
<path d="M94.4915 44.3132C95.658 43.4499 95.0269 42.4716 94.6062 41.5508C94.0326 42.0495 93.9561 43.5842 94.4915 44.3132Z" fill="#4F4F57"/>
<path d="M88.7158 35.5469C87.9892 36.602 88.5437 37.3885 89.213 38.1366C89.2895 38.1366 89.3469 38.1366 89.4234 38.1366C89.4807 37.7913 89.5572 37.446 89.5955 37.1007C89.5955 37.0048 89.4616 36.8897 89.4234 36.7938C89.3469 36.6211 89.3277 36.4293 89.2321 36.2758C89.0792 36.0265 88.8879 35.7963 88.7158 35.5661V35.5469Z" fill="#4F4F57"/>
<path d="M91.9861 50.0312C91.0109 50.9329 90.8961 51.3933 91.4316 52.3524C92.2347 51.7577 92.6554 50.7986 91.9861 50.0312Z" fill="#4F4F57"/>
<path d="M90.227 66.8732C89.9976 67.0842 89.749 67.2952 89.5195 67.5062C89.4621 67.7172 89.3857 67.9283 89.29 68.2352C89.5004 68.1776 89.6916 68.1776 89.8063 68.1009C90.1123 67.8515 90.38 67.5638 90.6668 67.2952C90.9537 67.0266 90.839 67.0842 90.8963 66.9691C91.1449 66.5279 91.3935 66.0867 91.5847 65.5879C91.1449 66.0291 90.686 66.4511 90.2462 66.8924" fill="#4F4F57"/>
<path d="M92.7698 59.1615H92.7316C93.0566 58.797 93.42 58.4517 93.7068 58.068C93.9363 57.7227 94.0892 57.3199 94.2231 56.917C94.2422 56.8595 94.051 56.6484 93.9745 56.6484C93.5921 56.7252 92.8463 57.8762 92.8845 58.2598C92.8845 58.3558 92.961 58.4709 92.9993 58.5476C92.9037 58.7778 92.4065 58.797 92.7507 59.1615" fill="#4F4F57"/>
<path d="M90.6281 61.9235C90.2839 62.288 89.5764 62.2304 89.4425 62.9402C89.5381 62.9018 89.6146 62.8635 89.6337 62.8635C89.5764 63.132 89.5955 63.4581 89.4616 63.7267C89.3278 63.9953 89.0792 64.2063 88.9453 64.4749C89.5381 64.4365 89.7485 64.1679 89.7485 63.6692C89.7485 63.5541 89.8632 63.4198 89.9397 63.3047C90.15 63.0553 90.3986 62.8251 90.5898 62.5565C90.7046 62.4031 90.7046 62.1729 90.7619 61.9618L90.6281 61.9043V61.9235Z" fill="#4F4F57"/>
<path d="M91.3744 10.4544C91.6612 10.0132 91.9481 9.55276 92.3114 9.01562H91.3744C91.5083 9.20746 91.5847 9.30338 91.7186 9.51439C91.1449 9.36093 91.0111 9.59113 91.0302 10.0132L90.9537 9.76378L90.839 9.72541C90.7051 10.0323 90.5521 10.3393 90.3418 10.7997C90.7434 10.5887 91.0111 10.4544 91.1258 11.0491C91.2597 10.7421 91.3362 10.6078 91.3935 10.4544H91.3744Z" fill="#4F4F57"/>
<path d="M100.151 42.9911C100.266 42.1279 100.228 41.2838 99.4627 40.6699C99.1376 41.514 99.5583 42.9527 100.151 42.9911Z" fill="#4F4F57"/>
<path d="M95.6388 9.78429C95.352 9.36226 94.4724 9.40062 94.0517 9.89939C94.1664 9.93776 94.262 9.97612 94.3385 9.99531C93.9369 10.3598 93.5354 10.7243 93.1338 11.0888C93.1529 11.1271 93.1912 11.1463 93.2103 11.1847C93.3441 11.0696 93.4971 10.9737 93.7266 10.801C93.6501 11.0504 93.6118 11.2039 93.5545 11.3381C93.5927 11.3765 93.6501 11.3957 93.6883 11.4341C93.8604 11.2039 94.1282 10.9928 94.1473 10.7435C94.1855 10.4365 94.3576 10.379 94.5488 10.3022C94.6636 10.2447 94.8548 10.1871 94.8739 10.1104C94.9887 9.61164 95.3137 9.76511 95.6197 9.82266L95.6388 9.78429Z" fill="#4F4F57"/>
<path d="M89.5766 9.22699C89.5766 9.22699 89.6913 9.18862 89.8061 9.13107C89.8061 9.09271 89.8061 9.07352 89.7869 9.03516C89.2898 9.15026 88.7926 9.24617 88.1807 9.39964C88.3528 9.51474 88.4484 9.57229 88.5249 9.62984C88.3528 9.82167 88.3528 10.2053 88.5631 10.7617C88.7543 10.3396 88.9264 9.97514 89.0985 9.61066C89.1177 9.61066 89.1368 9.61066 89.1559 9.62984C89.0985 9.97514 89.0412 10.3204 88.9838 10.6466C89.0412 10.6466 89.0985 10.6466 89.1368 10.6657C89.2706 10.2245 89.4045 9.76412 89.5575 9.20781" fill="#4F4F57"/>
<path d="M80.9527 37.5998C80.4938 37.8492 80.3408 38.2713 80.3408 38.7508C80.3408 38.8851 80.4173 39.1345 80.4938 39.1345C80.6468 39.1729 80.9336 39.1345 80.9719 39.0194C81.144 38.6549 81.2778 38.2713 81.3543 37.8684C81.3926 37.6382 81.1822 37.5231 80.9336 37.5998" fill="#4F4F57"/>
<path d="M91.3736 10.4559C91.5075 10.5326 91.6222 10.5902 91.7561 10.6669C91.8899 10.4943 92.0047 10.3408 92.1385 10.1681C92.1768 10.1681 92.1959 10.1873 92.2341 10.2065C92.1385 10.4751 92.0429 10.7436 91.9473 11.0314C92.6931 10.5518 92.7313 9.66938 93.1329 8.97878C92.6166 8.88286 92.4445 9.18979 92.2341 9.51591C92.0047 9.86121 91.909 10.3792 91.3545 10.4559" fill="#4F4F57"/>
<path d="M96.4414 21.2363C96.9577 22.0804 98.2198 22.6175 99.0229 21.9077C98.1433 21.6775 97.321 21.4665 96.4414 21.2363Z" fill="#4F4F57"/>
<path d="M97.5502 48.3613C97.3972 49.5507 97.2442 50.7209 97.1104 51.9102H97.2442C97.5884 50.7784 97.9709 49.6274 97.7223 48.3805C97.6649 48.3805 97.6075 48.3805 97.5693 48.3805" fill="#4F4F57"/>
<path d="M97.1108 39.0391C97.0152 39.8448 96.671 40.6505 97.149 41.4562C97.9713 40.6505 97.1108 39.8448 97.1108 39.0391Z" fill="#4F4F57"/>
<path d="M88.0467 58.375C87.5113 58.6819 86.9376 58.9313 87.0714 59.6986C87.6069 59.8713 88.1423 59.1807 88.0467 58.375Z" fill="#4F4F57"/>
<path d="M78.715 51.2587C79.0019 50.7791 79.2504 50.3763 79.4799 49.9734C79.4225 49.9159 79.3843 49.8583 79.3269 49.8008C79.0592 49.9159 78.715 49.9542 78.562 50.1461C78.3135 50.4338 78.3326 50.8175 78.715 51.2587Z" fill="#4F4F57"/>
<path d="M90.1314 15.1162C90.3991 15.5574 90.5904 15.9219 91.0684 15.8644C91.1449 15.8644 91.2979 15.5574 91.2596 15.4807C91.1449 15.2313 90.9728 14.9627 90.7433 14.8476C90.6286 14.7901 90.3418 15.0011 90.1123 15.1162" fill="#4F4F57"/>
<path d="M89.424 13.5625C88.9077 13.6968 88.4488 13.8311 87.9707 13.9462C88.0663 14.138 88.1428 14.2723 88.2575 14.4641C88.5061 14.2915 88.7547 14.1188 89.0224 13.9462C89.3093 14.1572 89.6152 14.3682 89.9212 14.5984C89.9212 14.5984 89.9403 14.56 89.9594 14.5408C89.7682 14.2147 89.5961 13.8886 89.4049 13.5625" fill="#4F4F57"/>
<path d="M96.8432 10.4359C96.3269 10.3208 95.8106 10.0906 95.3134 10.4743C94.9692 10.7429 94.7206 11.1265 94.3955 11.5102C94.778 11.6061 94.9883 11.3376 95.1222 11.1074C95.3708 10.7045 95.6958 10.6278 96.1165 10.647C96.3651 10.647 96.6137 10.5894 96.8623 10.5702C96.8623 10.5319 96.8623 10.4935 96.8623 10.4359" fill="#4F4F57"/>
<path d="M96.8053 24.4395C96.7288 25.2643 97.0156 26.0125 97.2068 26.9333C97.3598 26.6839 97.551 26.5113 97.5128 26.3962C97.3024 25.7439 97.0347 25.0917 96.7861 24.4395H96.8053Z" fill="#4F4F57"/>
<path d="M95.1797 58.0499C95.696 57.1674 96.2123 56.285 96.7286 55.4026C96.6712 55.3642 96.6138 55.3258 96.5565 55.3066C96.021 56.1699 95.4856 57.0331 94.9502 57.8964C95.0267 57.9539 95.1032 57.9923 95.1797 58.0499Z" fill="#4F4F57"/>
<path d="M98.3728 48.7828V46.1738C98.0286 47.2673 98.0095 47.6509 98.239 48.7828C98.2772 48.7828 98.3155 48.7828 98.3728 48.7828Z" fill="#4F4F57"/>
<path d="M93.7837 61.119C94.453 60.6203 94.8354 59.9488 95.0649 59.1431C95.0266 59.124 94.9884 59.0856 94.9501 59.0664C94.5295 59.7186 94.0896 60.3901 93.6689 61.0423L93.8028 61.119H93.7837Z" fill="#4F4F57"/>
<path d="M90.131 10.5896C90.2458 10.3977 90.3605 10.2251 90.4561 10.0141C90.5517 9.82223 90.6473 9.61122 90.7429 9.4002C90.7812 9.30428 90.8194 9.17 90.7812 9.09327C90.7429 9.01653 90.59 8.95898 90.5135 8.95898C90.3796 8.99735 90.1884 9.09327 90.1884 9.17C90.131 9.61122 90.1119 10.0524 90.0928 10.5128C90.1119 10.5128 90.131 10.5512 90.1501 10.5704" fill="#4F4F57"/>
<path d="M96.1739 57.3398C95.7723 58.088 95.3899 58.8553 94.9883 59.6227C95.0456 59.6418 95.0839 59.6802 95.1413 59.6994C95.6002 58.9704 96.0974 58.2606 96.346 57.4166C96.2886 57.3974 96.2312 57.359 96.1547 57.3398" fill="#4F4F57"/>
<path d="M98.9277 42.2617C98.9469 42.914 99.2528 43.3744 99.75 43.758C99.8647 43.1442 99.5397 42.5495 98.9277 42.2617Z" fill="#4F4F57"/>
<path d="M98.2006 39.8438C97.8755 40.496 98.1432 41.0331 98.5831 41.6086C98.8125 40.8988 98.3918 40.4001 98.2006 39.8438Z" fill="#4F4F57"/>
<path d="M99.9407 21.8885C99.4627 21.2362 99.042 21.1019 98.2197 21.4664C98.8508 21.6774 99.3671 21.8501 99.8834 22.0227L99.9599 21.8885H99.9407Z" fill="#4F4F57"/>
<path d="M79.3459 43.3926C78.9252 43.6803 78.7148 44.1407 78.8487 44.4668C79.6136 44.1599 79.6709 44.0064 79.3459 43.3926Z" fill="#4F4F57"/>
<path d="M81.775 73.4336C81.4499 73.6446 81.1439 73.8748 80.8188 74.0858C80.5129 74.4119 80.2069 74.7381 79.8818 75.0642L80.0348 75.2176L81.775 73.4336Z" fill="#4F4F57"/>
<path d="M93.822 9.65032C93.0953 9.61195 92.9806 10.1683 92.7129 10.6095C93.2483 10.5519 93.6881 10.1875 93.822 9.65032Z" fill="#4F4F57"/>
<path d="M96.9005 19.8743C96.8049 19.8743 96.7284 19.8551 96.6328 19.8359C96.8623 20.4882 97.7993 20.7951 98.4303 20.3539C97.8758 20.2004 97.2256 20.469 96.9005 19.8743Z" fill="#4F4F57"/>
<path d="M93.1523 9.5149C93.8599 9.43816 94.5674 9.36143 95.3514 9.2847C94.5483 9.18878 93.8216 8.92021 93.1523 9.5149Z" fill="#4F4F57"/>
<path d="M94.0133 18.6458C94.2045 19.0678 94.3957 19.4899 94.6443 20.0078C94.7208 20.0078 94.9311 20.0654 95.1606 20.1229C94.9885 19.8352 94.8546 19.5666 94.6634 19.3172C94.4913 19.0678 94.281 18.8376 94.0706 18.6074L93.9941 18.6458H94.0133Z" fill="#4F4F57"/>
<path d="M80.5127 44.7354C80.398 44.0832 80.2641 44.0256 79.6904 44.3134C79.7478 44.8313 80.0538 44.8889 80.5127 44.7354Z" fill="#4F4F57"/>
<path d="M96.786 24.4594C96.8052 24.21 96.8243 23.9798 96.8625 23.6345C96.6139 23.4427 96.2889 23.1933 95.8682 22.8672C95.8873 23.0207 95.8873 23.0782 95.9064 23.0974C96.1741 23.4235 96.5374 23.6729 96.5374 24.1525C96.5374 24.2484 96.6904 24.3443 96.786 24.4402" fill="#4F4F57"/>
<path d="M81.2586 43.3164C80.9527 43.3164 80.7423 43.3548 80.4746 43.374C80.6467 43.7193 80.7806 43.9878 80.9144 44.2756C80.9527 44.2756 80.9909 44.2756 81.0483 44.2756C81.1248 43.9686 81.1821 43.6617 81.2586 43.3164Z" fill="#4F4F57"/>
<path d="M94.95 32.8613C94.8926 33.4368 94.8162 34.0315 94.7588 34.607C94.8353 34.607 94.8926 34.607 94.9691 34.6262C95.0265 34.0507 95.0839 33.456 95.1604 32.8805C95.103 32.8805 95.0265 32.8805 94.9691 32.8613" fill="#4F4F57"/>
<path d="M77.8929 39.3262C77.0515 39.4988 76.9368 39.6523 77.3575 40.1702C77.5296 39.9017 77.6826 39.6523 77.8929 39.3262Z" fill="#4F4F57"/>
<path d="M98.0479 10.6286C97.5316 10.6669 97.0153 10.7053 96.499 10.7437C96.499 10.782 96.499 10.8396 96.499 10.8779H98.0479C98.0479 10.8012 98.0479 10.7053 98.0479 10.6094" fill="#4F4F57"/>
<path d="M76.3435 39.1152C76.1523 39.192 75.9229 39.2303 75.8081 39.3838C75.7125 39.4989 75.8081 39.7291 75.8081 40.0552C76.1332 39.8058 76.3627 39.6332 76.5921 39.4414C76.5156 39.3263 76.4392 39.2112 76.3627 39.1152" fill="#4F4F57"/>
<path d="M96.4609 17.0544C96.9581 17.2846 97.3597 17.0927 97.7421 16.7666C97.2832 16.7091 96.8625 16.8242 96.4609 17.0544Z" fill="#4F4F57"/>
<path d="M93.4395 62.3271C93.8984 61.6941 94.3573 61.0802 94.8354 60.4471C94.778 60.4088 94.7207 60.3704 94.6442 60.332C94.2426 61.0034 93.841 61.6749 93.4586 62.3463L93.4395 62.3271Z" fill="#4F4F57"/>
<path d="M95.6387 9.78367C96.2315 9.95632 96.8051 10.1482 97.3979 10.3208L97.4362 10.129C96.8434 10.0139 96.308 9.59183 95.6387 9.78367Z" fill="#4F4F57"/>
<path d="M89.6913 10.6092C89.8443 10.2639 89.9972 9.93779 90.1311 9.63086C89.4809 9.97616 89.3662 10.3023 89.6913 10.6092Z" fill="#4F4F57"/>
<path d="M93.8022 32.7074V31.3262H93.6875V32.7074H93.8022Z" fill="#4F4F57"/>
<path d="M88.2382 25.7832C88.1044 25.9175 87.9705 26.0518 87.7793 26.2244C88.2 26.3779 87.7984 27.0877 88.4868 27.0493C88.1617 26.6656 87.9514 26.282 88.2191 25.7832" fill="#4F4F57"/>
<path d="M100.533 20.2392C100.438 19.6637 100.017 19.4718 99.4434 19.6829C99.7876 19.9898 100.438 19.5486 100.533 20.2392Z" fill="#4F4F57"/>
<path d="M99.4824 30.4434V31.6327C99.884 31.134 99.884 31.038 99.4824 30.4434Z" fill="#4F4F57"/>
<path d="M96.2881 18.2441C96.6897 18.5894 96.9574 18.9539 97.4928 18.6662C97.0912 18.5319 96.747 18.4168 96.2881 18.2441Z" fill="#4F4F57"/>
<path d="M79.6332 42.9527C79.4993 42.8376 79.3654 42.7225 79.2125 42.6074C79.136 42.7225 79.0404 42.8184 78.9639 42.9335C79.136 43.0103 79.3081 43.1062 79.4993 43.1829C79.5375 43.1062 79.5949 43.0295 79.6332 42.9719" fill="#4F4F57"/>
<path d="M85.6758 70.0958C85.714 70.2876 85.7714 70.4986 85.8288 70.8056C85.9817 70.4794 86.1156 70.2492 86.2877 69.8848C86.0009 69.9807 85.8479 70.0382 85.6758 70.115" fill="#4F4F57"/>
<path d="M98.2195 52.0254C98.0091 52.5433 97.7797 53.0613 97.5693 53.5601L97.6841 53.6176C97.8944 53.0997 98.1048 52.6009 98.3342 52.0829C98.296 52.0829 98.2577 52.0446 98.2195 52.0254Z" fill="#4F4F57"/>
<path d="M87.9702 22.2148C87.9511 22.6368 87.9128 22.9438 87.932 23.2507C87.932 23.385 88.0849 23.5193 88.1806 23.6344C88.2762 23.5385 88.3527 23.4425 88.4483 23.3466C88.6013 23.174 88.7351 23.0013 88.9072 22.8479C89.347 22.4258 89.806 22.0038 90.2458 21.5818C90.2075 21.5242 90.1502 21.4475 90.1119 21.3899C89.9398 21.505 89.7486 21.6009 89.6147 21.7352C89.4618 21.8887 89.347 22.0805 89.0984 22.1956C89.1176 22.0805 89.194 21.9462 89.1749 21.8503C89.1749 21.6777 89.0793 21.5242 89.0411 21.3516C88.8498 21.4091 88.5439 21.4283 88.5056 21.5242C88.41 21.8887 88.41 22.2915 88.3718 22.6752C88.3718 22.7519 88.3909 22.8287 88.2953 22.9438C88.1997 22.7519 88.1232 22.5409 87.9702 22.234" fill="#4F4F57"/>
<path d="M86.2686 12.4893C86.6128 12.2782 86.9188 11.1848 86.7084 10.8203C86.5172 11.3766 86.326 11.8946 86.1348 12.4125C86.173 12.4317 86.2113 12.4509 86.2686 12.4893Z" fill="#4F4F57"/>
<path d="M76.9747 47.5938C76.6688 47.8431 76.1525 48.246 75.6553 48.668C76.0951 48.1884 76.9365 48.1117 76.9747 47.5938Z" fill="#4F4F57"/>
<path d="M83.4959 23.7298L84.2608 22.7707C84.2034 22.7131 84.1269 22.6747 84.0696 22.6172C83.821 22.9433 83.5724 23.2694 83.3047 23.5764C83.3621 23.6147 83.4194 23.6723 83.4768 23.7106" fill="#4F4F57"/>
<path d="M87.416 20.8906V21.9841H87.569V20.8906H87.416Z" fill="#4F4F57"/>
<path d="M81.7559 71.937C82.0045 71.7643 82.2722 71.6108 82.5016 71.4382C82.9797 71.0545 83.4386 70.6517 84.0123 70.1529C83.6872 70.1145 83.5151 70.0954 83.4195 70.0762C82.8458 70.7092 82.3104 71.3231 81.775 71.937H81.7559Z" fill="#4F4F57"/>
<path d="M78.6198 71.65C78.7919 71.4006 78.964 71.1512 79.1362 70.9019C79.0979 70.8635 79.0597 70.8059 79.0214 70.7676C78.7919 70.921 78.5625 71.0745 78.333 71.2472C78.4286 71.3814 78.18 71.7459 78.6007 71.6692" fill="#4F4F57"/>
<path d="M81.6025 69.1751C81.9276 68.9065 82.2527 68.6379 82.5969 68.3885L82.5013 68.2734C82.1953 68.5804 81.6982 68.6571 81.6217 69.1942" fill="#4F4F57"/>
<path d="M76.3442 75.9289C76.5737 75.7562 76.8032 75.5836 77.0326 75.3917C76.9944 75.3342 76.9561 75.2766 76.8988 75.2383C76.6693 75.4301 76.4398 75.6028 76.2295 75.7946C76.2677 75.833 76.306 75.8905 76.3442 75.9289Z" fill="#4F4F57"/>
<path d="M101.7 20.3148C101.662 19.816 101.777 19.1638 101.547 18.6842C101.165 17.8977 101.337 17.0728 101.107 16.2863C100.954 15.73 100.859 15.1736 100.706 14.6173C100.534 13.9459 100.113 13.5239 99.4629 13.332C99.3099 13.2745 99.157 13.1786 98.9657 13.1402C99.3673 13.5047 99.7689 13.8884 100.17 14.2528C100.132 14.2912 100.113 14.3296 100.075 14.3679C99.5968 14.1377 99.1187 13.8884 98.6407 13.6582C98.6407 13.6582 98.6024 13.639 98.6024 13.6198C98.8701 12.6606 97.7419 13.1402 97.5507 12.6031C97.5124 12.5072 97.1109 12.488 96.9005 12.5263C96.2886 12.6223 95.6767 12.7565 95.0648 12.8908C94.4146 13.0251 94.166 13.3704 94.166 14.0418C94.166 14.9434 94.4146 15.73 95.2369 16.2095C96.4989 16.4206 97.3595 16.0177 97.7037 15.0585C97.914 14.483 97.7801 13.9459 97.5507 13.4088C97.4933 13.2745 97.4168 13.121 97.4359 12.9292C97.608 13.1786 97.7801 13.428 97.9905 13.6582C98.2008 13.8884 98.4303 14.0994 98.7363 14.3871C98.7171 14.5406 98.6598 14.8283 98.6024 15.2887C98.9849 15.0394 99.2717 14.8475 99.5585 14.6557C99.6733 14.8667 99.635 15.0394 99.4247 15.1736C99.2526 15.2887 99.0805 15.4038 98.9657 15.5957C99.5203 15.4998 100.017 15.2504 100.591 15.5381C100.19 15.8259 99.8454 16.0944 99.5012 16.3438C99.5012 16.3822 99.5394 16.4206 99.5585 16.4589C99.8071 16.4781 100.037 16.5165 100.343 16.5357C100.037 16.9001 99.788 17.2071 99.5203 17.5332C99.6733 17.6675 99.8645 17.8209 100.094 18.0128C99.7498 18.0895 99.482 18.1471 99.2143 18.2238V18.2622H101.031C100.897 18.5115 100.821 18.6266 100.763 18.7609C100.878 18.8185 100.993 18.876 101.127 18.9528C100.993 19.0487 100.878 19.1254 100.84 19.1446C101.146 19.5474 101.433 19.9311 101.7 20.2764" fill="#4F4F57"/>
<path d="M94.2039 19.3558C93.8597 19.3558 94.0126 18.7228 93.5728 18.7228C93.439 18.1473 92.8462 18.1473 92.4637 17.9362C92.1387 17.7636 91.6415 17.8403 91.2399 17.8979C90.9722 17.9362 90.7236 18.0897 90.4941 18.2624C90.0926 18.5309 89.7292 18.5693 89.3277 18.224C89.2129 18.4734 89.1173 18.7419 88.9643 18.953C88.8496 19.1064 88.6584 19.2023 88.4863 19.3174C88.3142 19.0872 88.0273 18.8762 88.0082 18.646C87.97 18.0897 88.0465 17.5334 88.0847 16.9771C88.0847 16.7661 88.0847 16.555 88.0847 16.2097C87.7405 16.6126 87.511 16.9003 87.2624 17.1689C87.2051 17.1497 87.1477 17.1114 87.1095 17.0922C87.3581 16.5167 87.6066 15.922 87.8552 15.2889C87.7023 15.4232 87.5875 15.5383 87.4728 15.6534C87.4728 15.6534 87.4345 15.6342 87.4154 15.6151C87.5302 15.404 87.7023 15.193 87.7596 14.9628C87.7979 14.771 87.7596 14.5408 87.664 14.3681C87.6258 14.3106 87.3389 14.3106 87.2242 14.3681C87.1286 14.4257 87.1095 14.5983 87.0712 14.7326C86.7653 14.56 86.8035 14.5024 86.9756 13.831C87.1286 13.2555 87.2051 12.6608 87.3389 12.0278C87.1668 12.1045 87.0521 12.1621 86.8609 12.258C86.9756 11.5674 87.0712 10.9535 87.2051 10.2054C87.2433 10.589 87.2816 10.8768 87.3198 11.1837C87.3581 11.1837 87.3772 11.1837 87.4154 11.1837C87.4345 10.9535 87.4728 10.7233 87.4919 10.4164C87.6067 10.589 87.664 10.6849 87.817 10.9151V9.64904C86.9565 9.5723 86.3254 10.0327 85.7135 10.5315C85.2163 10.9151 85.0825 11.3755 85.2163 12.0086C85.2546 12.2196 85.2164 12.469 85.1781 12.6992C84.7957 12.9294 84.4323 13.7735 84.4323 14.4641C84.4323 15.1547 84.4897 15.0779 84.5853 15.3273C84.4515 15.6726 84.3367 16.0179 84.2602 16.3632C84.1264 17.0346 84.0308 17.7252 83.9734 18.4158C83.8969 19.2023 83.7057 19.9505 83.285 20.6411C83.132 20.8905 83.132 21.255 83.0173 21.5235C82.979 21.6386 82.8069 21.7729 82.6922 21.7729C82.0229 21.7921 81.4492 22.0607 80.9329 22.4635C80.7035 22.6362 80.5122 22.828 80.2637 22.9815C79.7091 23.3268 79.4223 23.8447 79.6709 24.4202C80.0151 25.2451 79.4988 25.6288 79.0207 26.07C78.6765 26.3961 78.3323 26.6455 77.8351 26.7798C77.4144 26.8949 77.0511 27.2593 76.726 27.5663C75.7508 28.5638 75.005 29.734 74.5843 31.0768C74.5078 31.3454 74.5078 31.5756 74.7182 31.8058C74.9476 32.0552 75.158 32.3429 75.3301 32.6307C75.4066 32.7841 75.4448 33.0143 75.4066 33.187C75.0624 34.8176 74.1827 36.1796 73.1119 37.3881C72.5 38.0787 71.7542 38.6159 71.0658 39.2297C70.6451 39.6134 70.2244 39.9971 69.8037 40.3807V65.6452C70.4347 64.6669 71.0467 63.6885 71.7542 62.7677C72.1558 62.2498 72.5191 61.751 72.7868 61.1755C72.825 61.0988 72.8824 61.022 72.9589 61.0028C73.7047 60.7534 73.9533 60.0245 74.4122 59.5065C74.4696 59.449 74.5269 59.3531 74.5078 59.2955C74.374 58.5666 74.9668 58.2404 75.3492 57.7992C75.4831 57.6458 75.5787 57.4923 75.7508 57.2813C75.5595 57.2429 75.4257 57.2237 75.2153 57.1853C75.3874 56.5139 76.0376 56.1878 76.4201 55.574C75.9229 55.478 75.4448 55.3821 74.9668 55.3054C75.1389 55.1903 75.4066 55.0368 75.636 54.8642C75.9802 54.5764 76.4965 54.3846 76.2862 53.7515C76.2671 53.6556 76.4201 53.5213 76.5157 53.3295C76.5922 53.483 76.6495 53.5597 76.7069 53.694C76.9555 53.5213 77.1849 53.3679 77.4144 53.2144C77.4144 53.176 77.3762 53.1568 77.3762 53.1185C77.2806 53.1185 77.1849 53.1569 77.032 53.1952C77.2806 52.7156 77.4335 52.2552 77.7013 51.8716C77.9881 51.4495 77.9307 51.085 77.6248 50.6822C76.9555 50.8932 76.5348 51.7181 75.5595 51.5646C76.1332 51.1234 76.5922 50.6438 77.1467 50.3753C78.2558 49.8381 78.6382 48.5145 77.8734 47.5169C77.7586 47.3635 77.7777 47.1141 77.7395 46.9223C77.7969 46.9223 77.8734 46.8839 77.9307 46.8647C78.0263 47.0182 78.1028 47.1908 78.1984 47.3443C78.2367 47.3443 78.294 47.3635 78.3323 47.3827C78.3705 47.1525 78.447 46.9223 78.4661 46.6921C78.4661 46.5002 78.4279 46.3084 78.447 46.0974C78.447 45.8288 78.5235 45.5411 78.0455 45.5986C78.2176 45.2341 78.3705 44.9464 78.5426 44.6011C78.4279 44.5243 78.3323 44.4476 78.2176 44.3901C78.3514 43.9872 78.4853 43.6227 78.6 43.2391C78.6 43.1815 78.4853 43.0664 78.3897 43.0089C78.3132 42.9705 78.1984 42.9705 78.1793 42.9705C78.3323 42.7019 78.4853 42.4525 78.6956 42.0881C77.969 42.2032 77.8351 42.0113 77.3953 40.4958C76.8025 41.1097 76.3244 41.8962 75.2918 41.6852C75.3492 41.5126 75.4066 41.3591 75.5022 41.0905C75.3874 41.1864 75.311 41.2056 75.2918 41.244C74.8903 42.0497 74.1254 42.0497 73.3796 42.0881C73.1692 42.0881 72.9589 42.1648 72.7486 42.184C72.5765 42.184 72.4044 42.184 72.1749 42.0689C72.2705 42.0689 72.3661 42.0305 72.4617 42.0113C72.4044 41.9538 72.3661 41.877 72.3087 41.8195C71.9263 42.0497 71.5438 42.2799 71.104 42.5293C72.3279 41.1864 73.4943 39.9012 74.7564 38.5008C74.4696 38.5775 74.3357 38.6159 74.1827 38.6734C74.1827 38.6542 74.1827 38.6351 74.1445 38.5967C74.9668 38.1363 75.8081 37.6951 76.6686 37.2155V37.4841C77.2806 37.1388 78.0646 37.7143 78.6 37.062C78.8104 36.8126 79.1354 36.6975 79.4223 36.5057C79.4414 36.5057 79.4796 36.5057 79.537 36.5057C80.1107 37.4265 79.8047 38.424 79.7474 39.4024C79.8047 39.4024 79.8621 39.4024 79.9003 39.4024C80.1107 37.8102 80.3401 36.218 80.5696 34.6257C80.5314 34.5874 80.4931 34.549 80.4549 34.5298C80.2637 34.7217 80.0724 34.8943 79.9003 35.1053C79.69 35.3739 79.4605 35.5082 79.1546 35.1821C79.0207 35.3931 78.906 35.6041 78.7721 35.8343C78.294 35.4698 78.1793 36.0069 77.8925 36.1796C77.7586 36.122 77.6056 36.0645 77.3188 35.9686C77.7013 35.7959 77.9881 35.6233 78.294 35.5274C78.7147 35.3931 79.1163 35.2204 79.1546 34.7792C79.1546 34.6257 78.6765 34.4531 78.3897 34.2613C78.4088 34.2613 78.5235 34.0886 78.5809 34.1078C79.4031 34.2804 79.7091 33.7049 80.0342 33.1486C80.0724 33.0911 80.0916 33.0335 80.1107 32.976C80.3401 32.976 80.5505 32.9376 80.7608 32.9184C80.7608 32.8992 80.7608 32.8609 80.7608 32.8417C80.5314 32.8033 80.3019 32.765 80.0151 32.7266C80.1298 32.5923 80.2063 32.4964 80.321 32.3621C80.1489 32.3621 80.0342 32.3429 79.9195 32.3237C79.9195 32.2854 79.9003 32.247 79.8812 32.1895C80.4358 32.0168 80.9712 31.8442 81.6596 31.614C81.6213 31.9784 81.5831 32.2662 81.5449 32.5539C81.564 32.5539 81.6022 32.5156 81.6213 32.4964C81.8317 32.8801 82.0612 33.2637 82.2715 33.6474C82.2906 33.6474 82.3289 33.6474 82.348 33.6474C82.2906 33.1678 82.2524 32.6882 82.195 32.1511C82.9025 32.3813 83.3041 33.1103 83.1511 33.5131C82.9217 33.6282 82.7687 33.6666 82.6731 33.7625C82.5775 33.8584 82.5392 34.0119 82.4436 34.1078C82.042 34.4915 81.8508 34.9135 82.0612 35.4698C82.1185 35.6041 82.0612 35.7959 82.0612 35.9686C82.0229 35.9686 81.9847 35.9686 81.9273 35.9686C81.8508 35.8343 81.7743 35.6808 81.6787 35.5465C80.9329 36.0069 80.5887 36.9086 80.9521 37.4457C81.2198 36.8126 82.0612 36.64 82.6922 37.1771C83.0364 36.6784 83.3806 36.1796 83.7439 35.6616C83.8013 35.7959 83.8204 35.9494 83.916 36.0069C83.9925 36.0645 84.1455 36.0645 84.2602 36.0453C84.4515 35.9878 84.6618 35.911 84.8339 35.7959C84.9869 35.7 85.1399 35.5465 85.2163 35.3931C85.2737 35.278 85.2546 35.0478 85.1781 34.9519C84.8339 34.5682 84.8721 33.8584 85.2546 33.5515C85.5797 33.82 85.8856 34.0694 86.249 34.3572C85.3693 34.8943 85.5606 35.6616 85.6753 36.3522C85.7327 36.7359 85.6944 36.9661 85.4458 37.2347C84.9678 37.7143 84.8148 38.3089 85.006 38.9612C85.0251 39.0571 85.1207 39.153 85.1781 39.2297C85.312 39.4024 85.4649 39.5559 85.5988 39.7285C86.2298 39.3257 86.3446 38.6542 86.3828 37.9061C86.3828 37.5608 86.574 37.1963 86.7653 36.9086C87.2242 36.1988 87.3389 35.489 86.9565 34.7217C87.3198 34.0502 86.4593 33.5515 86.7079 32.8225C86.8035 32.5539 86.3637 32.1127 86.1533 31.7482C86.096 31.6523 86.0004 31.5756 86.0195 31.5756C85.7518 31.614 85.5223 31.614 85.312 31.7099C85.1207 31.7866 84.9678 31.9784 84.7957 32.1127C84.7192 31.8633 84.6236 31.4989 84.4897 31.0385C84.1264 31.4413 83.8013 31.7674 83.5145 32.0935C83.1511 31.307 82.5201 30.463 83.0173 29.312C82.6731 29.4462 82.4818 29.523 82.1759 29.6381C82.3097 29.4462 82.3671 29.3503 82.4436 29.2736L82.3862 29.1393C82.0229 29.216 81.6787 29.312 81.258 29.4079C81.2198 29.1969 81.1815 28.9858 81.1242 28.7556C80.9712 28.794 80.8373 28.8324 80.6843 28.8707C80.6652 28.8324 80.627 28.8132 80.6079 28.7748C80.9712 28.4871 81.3345 28.1801 81.6978 27.8924C81.6596 27.8348 81.6213 27.7965 81.564 27.7389C81.4301 27.7965 81.2963 27.8348 81.1624 27.8924C81.1624 27.8732 81.1433 27.8348 81.1242 27.8157C81.5449 27.6046 81.9464 27.3936 82.3671 27.1826C82.3671 27.1251 82.3671 27.0867 82.3671 27.0291C82.2333 27.0291 82.0803 26.9908 81.9655 27.0291C81.2771 27.3744 80.5696 27.7006 80.168 28.4295C79.9768 28.7556 79.69 29.005 79.3649 29.2544C79.5179 28.9858 79.69 28.6981 79.8238 28.4103C79.9768 28.1034 80.1298 27.7965 80.2637 27.5087C80.2637 27.4704 80.3019 27.432 80.2828 27.4128C79.8621 26.7222 80.5505 26.492 80.8182 26.07C80.9521 25.859 81.1433 25.7055 81.3345 25.4945C81.1815 25.3794 80.9903 25.2451 80.7991 25.0916C81.6596 24.7271 81.2963 24.5737 82.348 25.4369C82.4627 25.3794 82.5966 25.3218 82.6922 25.2643C82.7304 25.4177 82.7687 25.552 82.7878 25.6863C82.8069 25.8206 82.8261 25.9741 82.8452 26.2043C82.6539 26.0508 82.5775 25.9932 82.501 25.9357C82.4819 25.9741 82.4436 26.0124 82.4627 26.0316C82.6157 26.281 82.8069 26.3385 83.0938 26.2426C83.4762 26.1083 83.8778 26.0316 84.3367 25.9165C84.2602 26.1083 84.222 26.2043 84.1455 26.3577C84.3176 26.3002 84.4323 26.2426 84.5662 26.2043C84.6044 26.3194 84.6427 26.4153 84.7192 26.6455C85.006 26.1083 85.2164 25.6863 85.4458 25.2643C85.4841 25.2643 85.5032 25.2643 85.5414 25.2643C85.5606 25.5137 85.5797 25.7439 85.5988 25.9932C85.637 25.9932 85.6562 26.0124 85.6944 26.0316C85.8091 25.8398 85.9239 25.6479 86.096 25.341C86.0577 25.6288 86.0195 25.8014 86.0004 25.9549C86.0195 25.9549 86.0386 25.9549 86.0577 25.9741C86.1725 25.763 86.249 25.4561 86.4211 25.341C86.5932 25.2451 86.88 25.341 87.1668 25.341C87.2433 25.2643 87.3772 25.13 87.5302 24.9957C87.5684 25.0149 87.6066 25.0533 87.6258 25.0724C87.5684 25.3218 87.4919 25.5712 87.4345 25.8014C87.4537 25.8014 87.4728 25.8206 87.4919 25.8398C87.5493 25.7439 87.6067 25.6479 87.6831 25.552C87.7214 25.6288 87.7596 25.6863 87.7979 25.763C87.8361 25.7439 87.8744 25.7247 87.8744 25.6863C87.9509 24.9573 88.448 24.5545 89.0217 24.19C89.2129 24.0749 89.385 23.8447 89.4424 23.6337C89.7866 22.2141 90.3794 21.0056 91.9666 20.6411C92.5593 20.5068 93.133 20.2574 93.7641 20.0464C93.8023 20.2382 93.8405 20.4493 93.8788 20.7178C94.3569 20.2958 94.0318 19.7011 94.223 19.2215" fill="#4F4F57"/>
<path d="M10.7923 74.6622L9.53025 73.0508H9.30078V75.7173H9.75972V74.0675L11.0409 75.7556H11.2321V73.0508H10.7923V74.6622Z" fill="#4F4F57"/>
<path d="M12.5703 73.0117L11.5186 75.7166H12.0349L12.2261 75.1794H13.144L13.3352 75.7166H13.8515L12.7806 73.0117H12.5703ZM12.3599 74.815L12.685 73.8366L13.0101 74.815H12.3791H12.3599Z" fill="#4F4F57"/>
<path d="M13.5459 73.4728H14.3873V75.7173H14.8653V73.4728H15.745V73.0508H13.5459V73.4728Z" fill="#4F4F57"/>
<path d="M16.5484 73.0508H16.0703V75.7173H16.5484V73.0508Z" fill="#4F4F57"/>
<path d="M18.097 73.0117C17.7528 73.0117 17.4659 73.146 17.2747 73.4146C17.0835 73.6831 16.9688 73.9901 16.9688 74.3737C16.9688 74.7574 17.0644 75.1411 17.2556 75.3905C17.4468 75.6398 17.7145 75.7741 18.0778 75.7741C18.4412 75.7741 18.7663 75.6398 18.9766 75.3905C19.1869 75.1411 19.3017 74.7958 19.3017 74.3737C19.3017 73.9517 19.2061 73.6064 18.9957 73.3762C18.7854 73.146 18.4985 73.0117 18.1161 73.0117H18.097ZM18.5942 75.1027C18.4603 75.2754 18.2882 75.3521 18.0587 75.3521C17.8293 75.3521 17.7145 75.2754 17.5998 75.1027C17.4851 74.9301 17.4468 74.6999 17.4468 74.3737C17.4468 74.0476 17.5042 73.8558 17.6189 73.6831C17.7336 73.5105 17.8866 73.4338 18.097 73.4338C18.5559 73.4338 18.7854 73.7407 18.7854 74.3737C18.7854 75.0068 18.728 74.9301 18.5942 75.1027Z" fill="#4F4F57"/>
<path d="M21.1761 74.6622L19.914 73.0508H19.6846V75.7173H20.1435V74.0675L21.4438 75.7556H21.6351V73.0508H21.1761V74.6622Z" fill="#4F4F57"/>
<path d="M22.9736 73.0117L21.9219 75.7166H22.4382L22.6294 75.1794H23.5473L23.7385 75.7166H24.2548L23.184 73.0117H22.9736ZM22.7441 74.815L23.0692 73.8366L23.3943 74.815H22.7633H22.7441Z" fill="#4F4F57"/>
<path d="M25.0005 73.0508H24.5225V75.7173H26.1861V75.2952H25.0005V73.0508Z" fill="#4F4F57"/>
<path d="M28.6334 75.3521C28.4231 75.3521 28.2319 75.2754 28.1171 75.1027C27.9833 74.9301 27.9259 74.6999 27.9259 74.4313C27.9259 74.1627 28.0024 73.9133 28.1362 73.7215C28.2701 73.5297 28.4613 73.4338 28.6717 73.4338C28.882 73.4338 29.0732 73.4913 29.188 73.5872L29.3792 73.2036C29.188 73.0693 28.9585 73.0117 28.6525 73.0117C28.3466 73.0117 28.0024 73.146 27.7729 73.4146C27.5434 73.6831 27.4287 74.0093 27.4287 74.4121C27.4287 74.815 27.5243 75.1603 27.7347 75.4096C27.945 75.659 28.2319 75.7741 28.5952 75.7741C28.9585 75.7741 29.2453 75.6782 29.4366 75.4672L29.2262 75.0835C29.0924 75.2562 28.882 75.3521 28.6334 75.3521Z" fill="#4F4F57"/>
<path d="M29.8193 75.7173H31.5021V75.2952H30.2974V74.5087H31.177V74.1059H30.2974V73.4728H31.5212V73.0508H29.8193V75.7173Z" fill="#4F4F57"/>
<path d="M33.4138 74.6622L32.1518 73.0508H31.9414V75.7173H32.3812V74.0675L33.6815 75.7556H33.8728V73.0508H33.4138V74.6622Z" fill="#4F4F57"/>
<path d="M34.1787 73.4728H35.0201V75.7173H35.4982V73.4728H36.3778V73.0508H34.1787V73.4728Z" fill="#4F4F57"/>
<path d="M36.6836 75.7173H38.3664V75.2952H37.1617V74.5087H38.0222V74.1059H37.1617V73.4728H38.3855V73.0508H36.6836V75.7173Z" fill="#4F4F57"/>
<path d="M40.3934 74.2398C40.489 74.1055 40.5272 73.9712 40.5272 73.8178C40.5272 73.2998 40.183 73.0312 39.5138 73.0312C38.8445 73.0312 39.2652 73.0312 39.0931 73.0312C38.921 73.0312 38.8062 73.0312 38.7871 73.0312V75.6977H39.2843V74.5851C39.4181 74.5851 39.5138 74.5851 39.5902 74.5851L40.2978 75.6785H40.8332L40.0492 74.47C40.183 74.4125 40.3169 74.3165 40.3934 74.2014V74.2398ZM39.9153 74.1439C39.8197 74.2014 39.6859 74.2206 39.4755 74.2206C39.2652 74.2206 39.3608 74.2206 39.2843 74.2206V73.4725C39.3417 73.4725 39.399 73.4725 39.4373 73.4725C39.6476 73.4725 39.8006 73.4917 39.8962 73.5492C39.9918 73.6068 40.0492 73.6835 40.0492 73.8178C40.0492 73.9521 40.0109 74.0863 39.9153 74.1439Z" fill="#4F4F57"/>
<path d="M42.1719 75.7173H42.6499V74.5087H43.5869V74.1059H42.6499V73.4728H43.9311V73.0508H42.1719V75.7173Z" fill="#4F4F57"/>
<path d="M45.3655 73.0117C45.0213 73.0117 44.7345 73.146 44.5433 73.4146C44.352 73.6831 44.2373 73.9901 44.2373 74.3737C44.2373 74.7574 44.3329 75.1411 44.5241 75.3905C44.7154 75.6398 44.9831 75.7741 45.3464 75.7741C45.7097 75.7741 46.0348 75.6398 46.2452 75.3905C46.4555 75.1411 46.5702 74.7958 46.5702 74.3737C46.5702 73.9517 46.4746 73.6064 46.2643 73.3762C46.0539 73.146 45.7671 73.0117 45.3846 73.0117H45.3655ZM45.8627 75.1027C45.7289 75.2754 45.5567 75.3521 45.3273 75.3521C45.0978 75.3521 44.9831 75.2754 44.8683 75.1027C44.7536 74.9301 44.7154 74.6999 44.7154 74.3737C44.7154 74.0476 44.7727 73.8558 44.8875 73.6831C45.0022 73.5105 45.1552 73.4338 45.3655 73.4338C45.8245 73.4338 46.0539 73.7407 46.0539 74.3737C46.0539 75.0068 45.9966 74.9301 45.8627 75.1027Z" fill="#4F4F57"/>
<path d="M48.5594 74.2398C48.655 74.1055 48.6933 73.9712 48.6933 73.8178C48.6933 73.2998 48.3491 73.0312 47.6798 73.0312C47.0105 73.0312 47.4312 73.0312 47.2591 73.0312C47.087 73.0312 46.9722 73.0312 46.9531 73.0312V75.6977H47.4503V74.5851C47.5842 74.5851 47.6798 74.5851 47.7563 74.5851L48.4638 75.6785H48.9992L48.2152 74.47C48.3491 74.4125 48.4829 74.3165 48.5594 74.2014V74.2398ZM48.0813 74.1439C47.9857 74.2014 47.8519 74.2206 47.6415 74.2206C47.4312 74.2206 47.5268 74.2206 47.4503 74.2206V73.4725C47.5077 73.4725 47.565 73.4725 47.6033 73.4725C47.8136 73.4725 47.9666 73.4917 48.0622 73.5492C48.1578 73.6068 48.2152 73.6835 48.2152 73.8178C48.2152 73.9521 48.177 74.0863 48.0813 74.1439Z" fill="#4F4F57"/>
<path d="M50.816 73.4728H52.0972V73.0508H50.3379V75.7173H50.816V74.5087H51.7529V74.1059H50.816V73.4728Z" fill="#4F4F57"/>
<path d="M53.0908 73.0117L52.0391 75.7166H52.5554L52.7466 75.1794H53.6645L53.8557 75.7166H54.372L53.3011 73.0117H53.0908ZM52.8804 74.815L53.2055 73.8366L53.5306 74.815H52.8996H52.8804Z" fill="#4F4F57"/>
<path d="M55.1181 73.0508H54.6592V75.7173H56.3228V75.2952H55.1181V73.0508Z" fill="#4F4F57"/>
<path d="M57.7955 75.3521C57.5852 75.3521 57.394 75.2754 57.2792 75.1027C57.1645 74.9301 57.088 74.6999 57.088 74.4313C57.088 74.1627 57.1645 73.9133 57.2983 73.7215C57.4322 73.5297 57.6234 73.4338 57.8338 73.4338C58.0441 73.4338 58.2353 73.4913 58.3501 73.5872L58.5413 73.2036C58.3501 73.0693 58.1206 73.0117 57.8147 73.0117C57.5087 73.0117 57.1645 73.146 56.935 73.4146C56.7056 73.6831 56.5908 74.0093 56.5908 74.4121C56.5908 74.815 56.6864 75.1603 56.8968 75.4096C57.1071 75.659 57.394 75.7741 57.7573 75.7741C58.1206 75.7741 58.4074 75.6782 58.5987 75.4672L58.3883 75.0835C58.2545 75.2562 58.0441 75.3521 57.7955 75.3521Z" fill="#4F4F57"/>
<path d="M59.9944 73.0117C59.6502 73.0117 59.3634 73.146 59.1722 73.4146C58.9618 73.6831 58.8662 73.9901 58.8662 74.3737C58.8662 74.7574 58.9618 75.1411 59.153 75.3905C59.3443 75.6398 59.612 75.7741 59.9753 75.7741C60.3386 75.7741 60.6637 75.6398 60.8741 75.3905C61.0844 75.1411 61.1991 74.7958 61.1991 74.3737C61.1991 73.9517 61.1035 73.6064 60.8932 73.3762C60.6828 73.146 60.396 73.0117 60.0136 73.0117H59.9944ZM60.4916 75.1027C60.3578 75.2754 60.1857 75.3521 59.9562 75.3521C59.7267 75.3521 59.612 75.2754 59.4972 75.1027C59.4016 74.9301 59.3443 74.6999 59.3443 74.3737C59.3443 74.0476 59.4016 73.8558 59.5164 73.6831C59.6311 73.5105 59.7841 73.4338 59.9944 73.4338C60.4534 73.4338 60.6828 73.7407 60.6828 74.3737C60.6828 75.0068 60.6255 74.9301 60.4916 75.1027Z" fill="#4F4F57"/>
<path d="M63.0535 74.6622L61.8105 73.0508H61.5811V75.7173H62.04V74.0675L63.3212 75.7556H63.5124V73.0508H63.0535V74.6622Z" fill="#4F4F57"/>
<path d="M65.4825 74.6999C65.4443 74.6039 65.3869 74.508 65.3104 74.4505C65.2339 74.3737 65.1001 74.297 64.928 74.2011C64.5838 74.0284 64.4308 73.875 64.4308 73.7215C64.4308 73.568 64.469 73.5489 64.5264 73.4913C64.5838 73.4338 64.6794 73.4146 64.775 73.4146C64.9662 73.4146 65.1383 73.4721 65.2913 73.5872L65.4251 73.1844C65.2913 73.0693 65.0618 73.0117 64.7559 73.0117C64.4499 73.0117 64.3352 73.0885 64.1822 73.2227C64.0292 73.357 63.9527 73.5297 63.9527 73.7407C63.9527 73.9517 63.9527 73.9517 64.0101 74.0476C64.0674 74.1435 64.1057 74.2203 64.1822 74.2778C64.2587 74.3354 64.3925 74.4313 64.5838 74.5272C64.7941 74.6231 64.928 74.719 64.9853 74.7958C65.0427 74.8725 65.0809 74.9684 65.0809 75.0643C65.0809 75.2562 64.9471 75.3521 64.6602 75.3521C64.3734 75.3521 64.2969 75.2945 64.1057 75.1603L63.9336 75.5823C64.1248 75.7166 64.3543 75.7741 64.6029 75.7741C64.8515 75.7741 65.1192 75.6974 65.2913 75.5631C65.4634 75.4288 65.5399 75.237 65.5399 75.026C65.5399 74.815 65.5208 74.7958 65.4825 74.6999Z" fill="#4F4F57"/>
<path d="M29.57 44.0652C29.8377 44.0652 30.0863 43.835 30.0863 43.5472C30.0863 43.2595 29.8569 43.0293 29.57 43.0293C29.2832 43.0293 29.0537 43.2595 29.0537 43.5472C29.0537 43.835 29.2832 44.0652 29.57 44.0652Z" fill="#BC9459"/>
<path d="M30.0102 43.546C30.0102 43.3006 29.815 43.1048 29.5704 43.1048C29.3259 43.1048 29.1307 43.3006 29.1307 43.546C29.1307 43.7913 29.3259 43.9871 29.5704 43.9871C29.7977 43.9871 30.0102 43.7895 30.0102 43.546ZM30.1632 43.546C30.1631 43.8779 29.8785 44.1406 29.5704 44.1406C29.2414 44.1406 28.9776 43.8761 28.9775 43.546C28.9775 43.2158 29.2414 42.9512 29.5704 42.9512C29.8995 42.9512 30.1632 43.2159 30.1632 43.546Z" fill="#BC9459"/>
<path d="M29.9914 49.2046H43.6448V48.4564C43.6448 47.3438 43.6448 44.5814 40.6617 44.1018L43.6448 40.6104L43.0902 40.1309L39.7438 44.0443V44.7924C42.8225 44.7924 42.8225 47.2479 42.8225 48.4564H29.9914V45.0802H29.1691V49.2046C29.1691 50.7584 28.06 50.7584 27.123 50.7584V51.5066C28.06 51.5066 29.9914 51.5066 29.9914 49.2238V49.2046Z" fill="#BC9459"/>
<path d="M43.5677 48.4574C43.5677 47.9 43.5669 46.9459 43.2008 46.0724C42.8372 45.2051 42.1122 44.4136 40.6489 44.1784L40.5141 44.1568L43.5363 40.6194L43.0979 40.24L39.8198 44.0733V44.7174C40.5618 44.7272 41.1289 44.8806 41.5612 45.1293C42.0087 45.3868 42.3071 45.7435 42.5053 46.1376C42.8996 46.9213 42.8984 47.8559 42.8984 48.4574V48.534H29.9143V45.1578H29.245V49.2054C29.245 49.6026 29.1742 49.9076 29.0478 50.1404C28.9208 50.3743 28.7403 50.5305 28.5305 50.6338C28.1396 50.8263 27.6436 50.8354 27.199 50.8358V51.4304C27.6672 51.4296 28.324 51.4149 28.8752 51.1528C29.1641 51.0154 29.4224 50.8106 29.6091 50.5044C29.796 50.1979 29.9142 49.7844 29.9143 49.2247V49.1288H43.5677V48.4574ZM43.7207 49.2822H30.0666C30.0588 49.8356 29.9374 50.26 29.7397 50.5844C29.5349 50.9202 29.2518 51.1435 28.9408 51.2914C28.3228 51.5853 27.5883 51.5842 27.1225 51.5842H27.0459V50.6826H27.1225C27.596 50.6826 28.0878 50.681 28.4631 50.4962C28.6476 50.4053 28.8033 50.2702 28.9135 50.0672C29.0243 49.863 29.092 49.5851 29.092 49.2054V45.0044H30.0674V48.3806H42.7453C42.7446 47.7763 42.7287 46.922 42.3688 46.2067C42.1822 45.8358 41.9033 45.503 41.485 45.2623C41.0662 45.0214 40.5028 44.87 39.7432 44.87H39.6667V44.0167L39.6852 43.9952L43.0814 40.0234L43.7518 40.6031L43.7024 40.6613L40.8064 44.0503C42.2381 44.3206 42.9708 45.1279 43.3418 46.0128C43.7214 46.9185 43.7207 47.9021 43.7207 48.4574V49.2822Z" fill="#BC9459"/>
<path d="M42.6119 51.4879C43.5489 51.4879 45.4803 51.4879 45.4803 49.2051H63.1302V41.9922H62.308V48.457H56.2462C56.2462 46.6154 56.2462 44.0448 52.3452 44.0448H51.5229V48.457H45.4611V45.0807H44.6389V49.2051C44.6389 50.759 43.5298 50.759 42.5928 50.759V51.5071L42.6119 51.4879ZM52.3643 44.793C55.443 44.793 55.443 46.6346 55.443 48.457H52.3643V44.793Z" fill="#BC9459"/>
<path d="M63.2071 41.916V49.2825H45.556C45.5456 49.8265 45.4249 50.2449 45.2294 50.5656C45.0247 50.9014 44.7416 51.1246 44.4305 51.2726C43.8264 51.5599 43.1109 51.5651 42.644 51.5652L42.5166 51.693V50.6828H42.5932C43.0667 50.6828 43.5587 50.6813 43.934 50.4964C44.1185 50.4056 44.274 50.2705 44.3842 50.0674C44.495 49.8633 44.5627 49.5854 44.5627 49.2057V45.0046H45.5381V48.3808H51.4468V43.9687H52.3456C54.3144 43.9687 55.3205 44.6191 55.8257 45.5234C56.311 46.392 56.3225 47.4791 56.3228 48.3808H62.2319V41.916H63.2071ZM52.3646 44.7169C53.9193 44.7169 54.7218 45.1831 55.1252 45.9046C55.5218 46.6138 55.5198 47.5526 55.5198 48.4576V48.5343H52.2883V44.7169H52.3646ZM52.4412 48.3808H55.3667C55.3663 47.4906 55.3546 46.6283 54.9919 45.9797C54.6319 45.3359 53.9134 44.8859 52.4412 44.8709V48.3808ZM44.7157 49.2057C44.7157 49.6029 44.6449 49.908 44.5185 50.1409C44.3915 50.3747 44.2112 50.531 44.0014 50.6343C43.6105 50.8268 43.1143 50.8357 42.6697 50.8361V51.4116C43.1391 51.4111 43.8064 51.3997 44.3652 51.1339C44.654 50.9965 44.9124 50.7918 45.0991 50.4856C45.2859 50.1791 45.4042 49.7655 45.4042 49.2057V49.1291H63.0541V42.0696H62.3848V48.5343H56.1701V48.4576C56.1701 47.5323 56.1683 46.4507 55.6922 45.5985C55.2221 44.7571 54.2777 44.1221 52.3456 44.1221H51.5997V48.5343H45.385V45.1581H44.7157V49.2057Z" fill="#BC9459"/>
<path d="M65.1758 41.9922H64.3535V49.2051H65.1758V41.9922Z" fill="#BC9459"/>
<path d="M65.2527 41.916V49.2825H64.2773V41.916H65.2527ZM64.4305 49.1291H65.0998V42.0696H64.4305V49.1291Z" fill="#BC9459"/>
<path d="M19.665 60.3129C19.665 60.6006 19.8945 60.8308 20.1813 60.8308C20.4682 60.8308 20.6976 60.6006 20.6976 60.3129C20.6976 60.0251 20.4682 59.7949 20.1813 59.7949C19.8945 59.7949 19.665 60.0251 19.665 60.3129Z" fill="#BC9459"/>
<path d="M20.6216 60.3135C20.6216 60.0682 20.4263 59.8724 20.1818 59.8724C19.9372 59.8724 19.742 60.0682 19.742 60.3135C19.742 60.5589 19.9372 60.7547 20.1818 60.7547C20.4263 60.7547 20.6215 60.5589 20.6216 60.3135ZM20.7745 60.3135C20.7745 60.6436 20.5108 60.9081 20.1818 60.9082C19.8527 60.9082 19.5889 60.6437 19.5889 60.3135C19.5889 59.9834 19.8527 59.7188 20.1818 59.7188C20.5108 59.7188 20.7745 59.9834 20.7745 60.3135Z" fill="#BC9459"/>
<path d="M21.0039 60.3129C21.0039 60.6006 21.2334 60.8308 21.5202 60.8308C21.807 60.8308 22.0365 60.6006 22.0365 60.3129C22.0365 60.0251 21.807 59.7949 21.5202 59.7949C21.2334 59.7949 21.0039 60.0251 21.0039 60.3129Z" fill="#BC9459"/>
<path d="M21.9594 60.3135C21.9594 60.0682 21.7642 59.8724 21.5197 59.8724C21.2751 59.8724 21.0799 60.0682 21.0799 60.3135C21.0799 60.5589 21.2751 60.7547 21.5197 60.7547C21.7642 60.7547 21.9594 60.5589 21.9594 60.3135ZM22.1124 60.3135C22.1124 60.6436 21.8487 60.9081 21.5197 60.9082C21.1906 60.9082 20.9268 60.6437 20.9268 60.3135C20.9268 59.9834 21.1906 59.7188 21.5197 59.7188C21.8487 59.7188 22.1124 59.9834 22.1124 60.3135Z" fill="#BC9459"/>
<path d="M24.2356 58.0292C24.2356 56.7056 24.2356 55.4011 26.2816 55.4011V58.7774H46.8191V58.0292C46.8191 57.1276 46.8191 53.6171 43.9316 53.6171C41.0441 53.6171 41.3883 54.5762 40.872 55.6313V51.5645H40.0498V58.0292H35.8428V54.653H35.0206V58.0292H27.123V54.653H26.3008C23.4324 54.653 23.4324 56.7056 23.4324 58.0292H18.3076C18.3076 56.1876 18.3076 54.3652 21.3863 54.3652V53.6171C17.5045 53.6171 17.4854 56.1876 17.4854 58.0292V58.7774H24.2547V58.0292H24.2356ZM43.9507 54.3652C45.9968 54.3652 45.9968 57.1276 45.9968 58.0292H40.872C40.872 57.1276 41.4839 54.3652 43.9507 54.3652Z" fill="#BC9459"/>
<path d="M26.3576 55.3249V58.7013H46.742V58.0299C46.742 57.5785 46.7414 56.4881 46.3857 55.5121C46.2082 55.0249 45.9437 54.5709 45.551 54.239C45.1596 53.9082 44.636 53.6944 43.931 53.6944C42.4903 53.6944 41.8845 53.935 41.5685 54.2809C41.4095 54.4551 41.3179 54.662 41.2333 54.898C41.1498 55.131 41.0717 55.3969 40.9401 55.6657L40.795 55.9625V51.6419H40.1257V58.1065H35.7657V54.7303H35.0964V58.1065H27.046V54.7303H26.3001C25.5919 54.7303 25.0671 54.857 24.6775 55.0629C24.2889 55.2682 24.0306 55.5545 23.8579 55.8813C23.5098 56.5402 23.5083 57.3641 23.5083 58.0299V58.1065H18.2306V58.0299C18.2306 57.5704 18.2305 57.1068 18.2792 56.6719C18.3279 56.2368 18.4258 55.8249 18.6252 55.4696C19.0221 54.7623 19.8049 54.3047 21.3092 54.2897V53.6951C19.4382 53.7118 18.5123 54.3403 18.0461 55.1708C17.5676 56.0231 17.5613 57.1049 17.5613 58.0299V58.7013H24.1776V58.1065H24.1586V58.0299C24.1586 57.6999 24.1584 57.366 24.1909 57.0529C24.2233 56.7397 24.2888 56.4417 24.423 56.1839C24.558 55.9245 24.7613 55.708 25.0643 55.5574C25.3658 55.4076 25.7621 55.3249 26.2811 55.3249H26.3576ZM43.9502 54.2892C44.4808 54.2892 44.8833 54.469 45.1855 54.7558C45.4859 55.0409 45.6832 55.4276 45.8133 55.8364C46.0732 56.6527 46.0727 57.5803 46.0727 58.0299V58.1065H40.795V58.0299C40.795 57.5675 40.9506 56.6378 41.4195 55.8214C41.8902 55.0018 42.6819 54.2892 43.9502 54.2892ZM43.9502 54.4426C42.7518 54.4426 42.004 55.1111 41.5521 55.898C41.1233 56.6446 40.9656 57.4915 40.9495 57.9531H45.9196C45.9189 57.4809 45.9058 56.6308 45.6677 55.883C45.5421 55.4885 45.3556 55.1283 45.0806 54.8673C44.8074 54.608 44.4426 54.4426 43.9502 54.4426ZM46.895 58.8548H26.2045V55.4793C25.7392 55.4871 25.3919 55.5658 25.132 55.6949C24.8596 55.8303 24.6793 56.0228 24.5586 56.2549C24.4369 56.4886 24.3745 56.7651 24.3431 57.0687C24.314 57.349 24.3119 57.6479 24.3117 57.9531H24.3305V58.8548H17.4082V58.0299C17.4082 57.1133 17.4114 55.9889 17.913 55.0955C18.4205 54.1915 19.4264 53.5409 21.3858 53.5409H21.4622V54.4426H21.3858C19.8615 54.4426 19.1246 54.8925 18.7585 55.5449C18.5731 55.8753 18.4787 56.2644 18.4312 56.689C18.3863 57.0902 18.3839 57.5182 18.3837 57.9531H23.3556C23.356 57.3058 23.3679 56.4809 23.7227 55.8094C23.9086 55.4576 24.1883 55.1479 24.6064 54.927C25.0235 54.7067 25.5743 54.5769 26.3001 54.5769H27.1989V57.9531H34.9435V54.5769H35.9188V57.9531H39.9726V51.4883H40.948V55.2508C40.998 55.1137 41.0417 54.9791 41.0893 54.8461C41.1756 54.6056 41.2754 54.3748 41.4557 54.1773C41.8187 53.7799 42.4844 53.5409 43.931 53.5409C44.6697 53.5409 45.2288 53.7661 45.6496 54.1217C46.069 54.4761 46.3459 54.9561 46.5293 55.4593C46.8955 56.4639 46.895 57.5797 46.895 58.0299V58.8548Z" fill="#BC9459"/>
<path d="M34.9053 53.1C34.9053 53.3877 35.1347 53.6179 35.4216 53.6179C35.7084 53.6179 35.9379 53.3877 35.9379 53.1C35.9379 52.8122 35.7084 52.582 35.4216 52.582C35.1347 52.582 34.9053 52.8122 34.9053 53.1Z" fill="#BC9459"/>
<path d="M35.8618 53.1007C35.8618 52.8553 35.6666 52.6595 35.422 52.6595C35.1774 52.6595 34.9822 52.8553 34.9822 53.1007C34.9822 53.346 35.1774 53.5418 35.422 53.5418C35.6666 53.5418 35.8618 53.346 35.8618 53.1007ZM36.0147 53.1007C36.0147 53.4308 35.7511 53.6952 35.422 53.6953C35.0929 53.6953 34.8291 53.4308 34.8291 53.1007C34.8291 52.7705 35.0929 52.5059 35.422 52.5059C35.7511 52.5059 36.0147 52.7705 36.0147 53.1007Z" fill="#BC9459"/>
<path d="M49.6869 60.3121V61.0602C50.6239 61.0602 52.5553 61.0602 52.5553 58.7774H63.1299V51.5645H62.3077V58.0292H52.5553V53.6171H51.733C47.832 53.6171 47.832 56.1876 47.832 58.0292V58.7774H51.733C51.733 60.3312 50.6239 60.3312 49.6869 60.3312V60.3121ZM48.6734 58.0292C48.6734 56.1876 48.6734 54.3652 51.7521 54.3652V58.0292H48.6734Z" fill="#BC9459"/>
<path d="M63.2069 51.4883V58.8548H52.6311C52.6208 59.3988 52.5 59.8172 52.3045 60.1378C52.0998 60.4736 51.8167 60.6969 51.5056 60.8448C50.8877 61.1387 50.1532 61.1377 49.6873 61.1377H49.6108V60.3126H49.6873V60.2551C50.1608 60.2551 50.6527 60.2535 51.028 60.0687C51.2125 59.9778 51.3679 59.8428 51.4782 59.6397C51.5814 59.4495 51.6474 59.1955 51.656 58.8548H47.7559V58.0299C47.7559 57.1137 47.7542 55.9891 48.2533 55.0956C48.7585 54.1914 49.7646 53.5409 51.7335 53.5409H52.6321V57.9531H62.2315V51.4883H63.2069ZM51.8291 54.2892V58.1065H48.5973V58.0299C48.5973 57.5704 48.5972 57.1068 48.6459 56.6719C48.6946 56.2368 48.7925 55.8249 48.9919 55.4696C49.3955 54.7503 50.1981 54.2892 51.7525 54.2892H51.8291ZM51.6759 54.4432C50.2034 54.458 49.4851 54.9035 49.1252 55.5449C48.9398 55.8753 48.8454 56.2644 48.7979 56.689C48.753 57.0902 48.7506 57.5182 48.7504 57.9531H51.6759V54.4432ZM47.909 58.7013H51.8098V58.778C51.8098 59.1752 51.739 59.4803 51.6126 59.7131C51.4857 59.947 51.3052 60.1033 51.0954 60.2066C50.7044 60.3991 50.2083 60.4079 49.7637 60.4083V60.9837C50.2319 60.9828 50.8888 60.9684 51.4401 60.7062C51.729 60.5688 51.9873 60.364 52.174 60.0578C52.3608 59.7513 52.4791 59.3377 52.4791 58.778V58.7013H63.0538V51.6419H62.3845V58.1065H52.4791V53.6944H51.7335C49.8013 53.6944 48.8569 54.3293 48.3869 55.1708C47.9108 56.023 47.909 57.1045 47.909 58.0299V58.7013Z" fill="#BC9459"/>
<path d="M65.1758 51.5645H64.3535V58.7774H65.1758V51.5645Z" fill="#BC9459"/>
<path d="M65.2527 51.4883V58.8548H64.2773V51.4883H65.2527ZM64.4305 58.7013H65.0998V51.6419H64.4305V58.7013Z" fill="#BC9459"/>
<path d="M11.8244 68.3123C11.8244 69.8661 10.7153 69.8661 9.77832 69.8661V70.6143C10.7153 70.6143 12.6467 70.6143 12.6467 68.3314V64.207H11.8244V68.3314V68.3123Z" fill="#BC9459"/>
<path d="M12.5705 64.2845H11.9012V68.3321H11.901C11.8988 68.72 11.8284 69.0189 11.704 69.248C11.5771 69.4818 11.3967 69.6381 11.1869 69.7414C10.796 69.9339 10.2999 69.9429 9.85528 69.9434V70.5378C10.3235 70.537 10.9803 70.5223 11.5315 70.2602C11.8204 70.1227 12.0787 69.918 12.2654 69.6118C12.4522 69.3053 12.5705 68.8919 12.5705 68.3321V64.2845ZM12.7236 68.3321C12.7236 68.9137 12.6005 69.3564 12.3959 69.692C12.1912 70.0277 11.908 70.251 11.597 70.399C10.9791 70.6929 10.2445 70.6916 9.77871 70.6916H9.70215V69.7899H9.77871C10.2522 69.7899 10.7442 69.7886 11.1195 69.6037C11.3041 69.5128 11.4595 69.3776 11.5698 69.1745C11.6737 68.9831 11.7397 68.727 11.7475 68.3829L11.7483 68.313V64.1309H12.7236V68.3321Z" fill="#BC9459"/>
<path d="M33.0127 61.6371C33.0127 61.9248 33.2422 62.155 33.529 62.155C33.8158 62.155 34.0453 61.9248 34.0453 61.6371C34.0453 61.3493 33.8158 61.1191 33.529 61.1191C33.2422 61.1191 33.0127 61.3493 33.0127 61.6371Z" fill="#BC9459"/>
<path d="M33.9682 61.6358C33.9682 61.3905 33.773 61.1947 33.5285 61.1946C33.2839 61.1946 33.0887 61.3904 33.0887 61.6358C33.0887 61.8812 33.2839 62.077 33.5285 62.077C33.773 62.077 33.9682 61.8812 33.9682 61.6358ZM34.1212 61.6358C34.1212 61.9659 33.8575 62.2304 33.5285 62.2304C33.1994 62.2304 32.9356 61.9659 32.9355 61.6358C32.9355 61.3057 33.1994 61.041 33.5285 61.041C33.8575 61.041 34.1212 61.3057 34.1212 61.6358Z" fill="#BC9459"/>
<path d="M34.3506 61.6371C34.3506 61.9248 34.5801 62.155 34.8669 62.155C35.1537 62.155 35.3832 61.9248 35.3832 61.6371C35.3832 61.3493 35.1537 61.1191 34.8669 61.1191C34.5801 61.1191 34.3506 61.3493 34.3506 61.6371Z" fill="#BC9459"/>
<path d="M35.3071 61.6358C35.3071 61.3905 35.1119 61.1947 34.8673 61.1946C34.6227 61.1946 34.4275 61.3904 34.4275 61.6358C34.4276 61.8812 34.6227 62.077 34.8673 62.077C35.1119 62.077 35.3071 61.8812 35.3071 61.6358ZM35.46 61.6358C35.46 61.9659 35.1964 62.2304 34.8673 62.2304C34.5383 62.2304 34.2744 61.9659 34.2744 61.6358C34.2744 61.3057 34.5382 61.041 34.8673 61.041C35.1964 61.041 35.46 61.3057 35.46 61.6358Z" fill="#BC9459"/>
<path d="M64.1624 67.5839H61.8103V61.1191H60.9881V67.5839H54.9263C54.9263 66.6823 54.9263 63.1718 52.0388 63.1718C49.1513 63.1718 49.4955 64.1309 48.9792 65.186V63.6897H48.1569V67.5839H36.5497V63.1718H35.7274C31.8264 63.1718 31.8264 65.7423 31.8264 67.5839H18.3834V63.1718H17.5611C13.6602 63.1718 13.6602 65.7423 13.6602 67.5839V68.3321H17.5611C17.5611 69.8859 16.452 69.8859 15.515 69.8859V70.6341C16.452 70.6341 18.3834 70.6341 18.3834 68.3513H64.9846V61.1383H64.1624V67.6031V67.5839ZM17.5611 67.5839H14.4824C14.4824 65.7423 14.4824 63.9199 17.5611 63.9199V67.5839ZM35.7274 67.5839H32.6487C32.6487 65.7423 32.6487 63.9199 35.7274 63.9199V67.5839ZM48.9792 67.5839C48.9792 66.6823 49.5911 63.9199 52.0579 63.9199C54.5247 63.9199 54.104 66.6823 54.104 67.5839H48.9792Z" fill="#BC9459"/>
<path d="M61.8872 61.041V67.5058H64.0863V61.0603H65.0615V68.4266H18.4593C18.4489 68.9706 18.3281 69.389 18.1326 69.7097C17.9279 70.0455 17.6448 70.2687 17.3338 70.4167C16.7158 70.7106 15.9813 70.7095 15.5155 70.7095H15.4389V69.8078H15.5155C15.989 69.8078 16.4808 69.8063 16.8561 69.6214C17.0406 69.5306 17.1961 69.3955 17.3063 69.1924C17.4095 69.0023 17.4755 68.7482 17.4841 68.4075H13.584V67.5826C13.584 66.6664 13.5823 65.5418 14.0815 64.6484C14.5866 63.7442 15.5928 63.0937 17.5616 63.0937H18.4602V67.5058H31.7504C31.7507 66.6041 31.7625 65.517 32.2477 64.6484C32.7529 63.7442 33.759 63.0937 35.7279 63.0937H36.6265V67.5058H48.0808V63.6117H49.056V64.8041C49.1061 64.6668 49.1496 64.532 49.1974 64.3988C49.2836 64.1583 49.3834 63.9275 49.5638 63.7301C49.9267 63.3326 50.5926 63.0937 52.0392 63.0937C52.7779 63.0937 53.3371 63.3188 53.7578 63.6744C54.1772 64.0289 54.4542 64.5089 54.6375 65.012C54.9843 65.9636 55.0019 67.0149 55.0028 67.5058H60.9119V61.041H61.8872ZM17.638 63.8419V67.6593H14.4064V67.5826C14.4064 67.1232 14.4063 66.6595 14.4549 66.2246C14.5036 65.7895 14.6016 65.3777 14.801 65.0223C15.2046 64.3031 16.0072 63.8419 17.5616 63.8419H17.638ZM35.8042 63.8419V67.6593H32.5727V67.5826C32.5727 67.1232 32.5725 66.6595 32.6212 66.2246C32.6699 65.7895 32.7678 65.3777 32.9672 65.0223C33.3708 64.3031 34.1735 63.8419 35.7279 63.8419H35.8042ZM52.0583 63.8419C52.69 63.8419 53.1455 64.0192 53.4695 64.3069C53.7921 64.5935 53.9766 64.9829 54.0805 65.3936C54.2868 66.2093 54.181 67.1451 54.181 67.5826V67.6593H48.9031V67.5826C48.9031 67.1202 49.0586 66.1906 49.5275 65.3741C49.9982 64.5545 50.7899 63.8419 52.0583 63.8419ZM52.0583 63.9953C50.8598 63.9953 50.112 64.6638 49.6601 65.4507C49.2314 66.1973 49.0738 67.0442 49.0577 67.5058H54.0288C54.0381 67.0245 54.1217 66.1807 53.9322 65.4315C53.8329 65.0389 53.6601 64.6812 53.3679 64.4217C53.0769 64.1633 52.6598 63.9953 52.0583 63.9953ZM35.6513 63.9959C34.1788 64.0107 33.4605 64.4563 33.1006 65.0976C32.9152 65.428 32.8207 65.8172 32.7732 66.2417C32.7283 66.6429 32.7259 67.0709 32.7258 67.5058H35.6513V63.9959ZM17.485 63.9959C16.0125 64.0107 15.2942 64.4563 14.9343 65.0976C14.7489 65.428 14.6545 65.8172 14.607 66.2417C14.5621 66.6429 14.5597 67.0709 14.5595 67.5058H17.485V63.9959ZM13.7371 68.2541H17.638V68.3307C17.638 68.7279 17.5672 69.033 17.4408 69.2659C17.3138 69.4998 17.1333 69.656 16.9235 69.7593C16.5326 69.9518 16.0365 69.9607 15.5918 69.9611V70.5557C16.0601 70.5549 16.7169 70.5403 17.2682 70.2781C17.5571 70.1406 17.8154 69.9359 18.0021 69.6297C18.189 69.3232 18.3072 68.9097 18.3073 68.35V68.2732H64.9085V61.2137H64.2393V67.6018H64.1627V67.6593H61.7343V61.1946H61.065V67.6593H54.8502V67.5826C54.8502 67.1312 54.8496 66.0409 54.4939 65.0648C54.3164 64.5777 54.0519 64.1236 53.6592 63.7917C53.2679 63.4609 52.7442 63.2471 52.0392 63.2471C50.5984 63.2471 49.9925 63.4879 49.6765 63.8338C49.5175 64.008 49.426 64.2148 49.3413 64.4507C49.2578 64.6837 49.1797 64.9496 49.0482 65.2185L48.9031 65.5152V63.7651H48.2338V67.6593H36.4735V63.2471H35.7279C33.7957 63.2471 32.8513 63.8821 32.3813 64.7235C31.9051 65.5757 31.9034 66.6573 31.9034 67.5826V67.6593H18.3073V63.2471H17.5616C15.6295 63.2471 14.6851 63.8821 14.215 64.7235C13.7389 65.5757 13.7371 66.6573 13.7371 67.5826V68.2541Z" fill="#BC9459"/>
</svg>
