<svg width="56" height="40" viewBox="0 0 56 40" fill="none" xmlns="http://www.w3.org/2000/svg">
<path d="M0 0H56V40H0V0Z" fill="#F3F4F6"/>
<path d="M22.5794 21.5704C21.4433 21.086 20.4581 20.4139 19.6502 19.7342L18.11 21.2745C17.9883 21.3962 17.8283 21.4579 17.6683 21.4579H17.6674C17.5074 21.4579 17.3474 21.397 17.2258 21.2745C16.9816 21.0303 16.9816 20.6346 17.2258 20.3904L18.7285 18.8877C17.7582 17.9176 17.2021 17.0971 17.1462 17.013C16.9546 16.7255 17.032 16.3379 17.3195 16.1463C17.607 15.9546 17.9945 16.0321 18.1862 16.3196C18.2179 16.3663 21.4012 21.0413 25.9995 21.0413C30.5978 21.0413 33.7812 16.3663 33.8129 16.3188C34.0046 16.0321 34.3929 15.9546 34.6795 16.1463C34.9662 16.3379 35.0437 16.7255 34.8529 17.0121C34.797 17.0962 34.2413 17.9161 33.2718 18.8856L34.7766 20.3904C35.0208 20.6346 35.0208 21.0303 34.7766 21.2745C34.655 21.3962 34.495 21.4579 34.335 21.4579H34.3341C34.1741 21.4579 34.0141 21.397 33.8924 21.2745L32.3502 19.7323C31.5425 20.4119 30.5574 21.0841 29.4215 21.5688L30.2868 23.0109C30.4643 23.3068 30.3684 23.691 30.0726 23.8685C29.9718 23.9285 29.861 23.9576 29.7518 23.9576C29.5393 23.9576 29.3326 23.8493 29.2151 23.6543L28.2164 21.9897C27.5208 22.1795 26.7803 22.2905 25.9995 22.2905C25.2195 22.2905 24.4796 22.1805 23.7847 21.9911L22.7868 23.6543C22.6693 23.8493 22.4626 23.9576 22.2501 23.9576C22.1409 23.9576 22.0301 23.9293 21.9293 23.8685C21.6335 23.691 21.5376 23.3068 21.7151 23.0109L22.5794 21.5704Z" fill="#161616"/>
</svg>
