<svg width="20" height="20" viewBox="0 0 20 20" fill="none" xmlns="http://www.w3.org/2000/svg">
<path fill-rule="evenodd" clip-rule="evenodd" d="M5.64645 5.64657C5.84171 5.45131 6.15829 5.45131 6.35355 5.64657L10 9.29302L13.6464 5.64657C13.8417 5.45131 14.1583 5.45131 14.3536 5.64657C14.5488 5.84183 14.5488 6.15841 14.3536 6.35368L10.7071 10.0001L14.3536 13.6466C14.5488 13.8418 14.5488 14.1584 14.3536 14.3537C14.1583 14.5489 13.8417 14.5489 13.6464 14.3537L10 10.7072L6.35355 14.3537C6.15829 14.5489 5.84171 14.5489 5.64645 14.3537C5.45118 14.1584 5.45118 13.8418 5.64645 13.6466L9.29289 10.0001L5.64645 6.35368C5.45118 6.15841 5.45118 5.84183 5.64645 5.64657Z" fill="#161616"/>
</svg>
