<svg width="20" height="20" viewBox="0 0 20 20" fill="none" xmlns="http://www.w3.org/2000/svg">
<path fill-rule="evenodd" clip-rule="evenodd" d="M10.0003 13.1243C8.27444 13.1243 6.87533 11.7252 6.87533 9.99935C6.87533 8.27346 8.27444 6.87435 10.0003 6.87435C11.7262 6.87435 13.1253 8.27346 13.1253 9.99935C13.1253 11.7252 11.7262 13.1243 10.0003 13.1243ZM8.12533 9.99935C8.12533 11.0349 8.96479 11.8743 10.0003 11.8743C11.0359 11.8743 11.8753 11.0349 11.8753 9.99935C11.8753 8.96382 11.0359 8.12435 10.0003 8.12435C8.96479 8.12435 8.12533 8.96382 8.12533 9.99935Z" fill="#161616"/>
<path fill-rule="evenodd" clip-rule="evenodd" d="M10.0003 3.54102C7.85819 3.54102 6.02195 4.48386 4.60058 5.5935C3.17793 6.70415 2.12638 8.0158 1.53817 8.84062L1.49382 8.90246C1.28286 9.19586 1.04199 9.53084 1.04199 9.99935C1.04199 10.4679 1.28286 10.8028 1.49382 11.0962L1.53817 11.1581C2.12638 11.9829 3.17793 13.2946 4.60058 14.4052C6.02195 15.5148 7.85819 16.4577 10.0003 16.4577C12.1425 16.4577 13.9787 15.5148 15.4001 14.4052C16.8227 13.2946 17.8743 11.9829 18.4625 11.1581L18.5068 11.0962C18.7178 10.8028 18.9587 10.4679 18.9587 9.99935C18.9587 9.53084 18.7178 9.19586 18.5068 8.90246L18.4625 8.84061C17.8743 8.0158 16.8227 6.70415 15.4001 5.5935C13.9787 4.48385 12.1425 3.54102 10.0003 3.54102ZM2.55588 9.56639C3.10605 8.79492 4.07731 7.58783 5.36979 6.5788C6.66355 5.56878 8.23478 4.79102 10.0003 4.79102C11.7659 4.79102 13.3371 5.56878 14.6309 6.5788C15.9233 7.58783 16.8946 8.79492 17.4448 9.56639C17.5809 9.75724 17.6456 9.85043 17.6843 9.92462C17.7088 9.97178 17.7087 9.9847 17.7087 9.99736L17.7087 9.99935L17.7087 10.0013C17.7087 10.014 17.7088 10.0269 17.6843 10.0741C17.6456 10.1483 17.5809 10.2415 17.4448 10.4323C16.8946 11.2038 15.9233 12.4109 14.6309 13.4199C13.3371 14.4299 11.7659 15.2077 10.0003 15.2077C8.23478 15.2077 6.66355 14.4299 5.36979 13.4199C4.07731 12.4109 3.10605 11.2038 2.55588 10.4323C2.41978 10.2415 2.35501 10.1483 2.31639 10.0741C2.29185 10.0269 2.29192 10.014 2.29199 10.0013L2.29199 9.99935L2.29199 9.99736C2.29192 9.9847 2.29185 9.97177 2.31639 9.92462C2.35501 9.85043 2.41978 9.75724 2.55588 9.56639Z" fill="#161616"/>
</svg>
